<svg width="48" height="48" viewBox="0 0 48 48" fill="none" xmlns="http://www.w3.org/2000/svg">
<path d="M24 18.0004V26.0004M24 34.0004H24.02M20.58 7.72041L3.64004 36.0004C3.29078 36.6053 3.10598 37.291 3.10402 37.9894C3.10206 38.6879 3.28302 39.3747 3.62889 39.9815C3.97477 40.5883 4.47349 41.0939 5.07546 41.4481C5.67742 41.8023 6.36164 41.9927 7.06004 42.0004H40.94C41.6384 41.9927 42.3227 41.8023 42.9246 41.4481C43.5266 41.0939 44.0253 40.5883 44.3712 39.9815C44.7171 39.3747 44.898 38.6879 44.8961 37.9894C44.8941 37.291 44.7093 36.6053 44.36 36.0004L27.42 7.72041C27.0635 7.13262 26.5615 6.64665 25.9624 6.30938C25.3634 5.97211 24.6875 5.79492 24 5.79492C23.3126 5.79492 22.6367 5.97211 22.0377 6.30938C21.4386 6.64665 20.9366 7.13262 20.58 7.72041Z" stroke="#00AEFF" stroke-width="4" stroke-linecap="round" stroke-linejoin="round"/>
</svg>
