<svg width="37" height="37" viewBox="0 0 37 37" fill="none" xmlns="http://www.w3.org/2000/svg">
<path d="M23.8958 7.70898C26.061 7.70898 27.1436 7.70898 27.9213 8.22862C28.2579 8.45358 28.547 8.74264 28.772 9.07931C29.2916 9.857 29.2916 10.9396 29.2916 13.1048V27.7507C29.2916 30.6576 29.2916 32.1111 28.3885 33.0142C27.4854 33.9173 26.0319 33.9173 23.1249 33.9173H13.8749C10.9679 33.9173 9.51443 33.9173 8.61134 33.0142C7.70825 32.1111 7.70825 30.6576 7.70825 27.7507V13.1048C7.70825 10.9396 7.70825 9.857 8.22789 9.07931C8.45284 8.74264 8.74191 8.45358 9.07858 8.22862C9.85627 7.70898 10.9389 7.70898 13.1041 7.70898" stroke="#10C7F9" stroke-width="2"/>
<path d="M13.875 7.70833C13.875 6.00546 15.2555 4.625 16.9583 4.625H20.0417C21.7445 4.625 23.125 6.00546 23.125 7.70833C23.125 9.41121 21.7445 10.7917 20.0417 10.7917H16.9583C15.2555 10.7917 13.875 9.41121 13.875 7.70833Z" stroke="#10C7F9" stroke-width="2"/>
<path d="M13.875 18.5L23.125 18.5" stroke="#10C7F9" stroke-width="2" stroke-linecap="round"/>
<path d="M13.875 24.666L20.0417 24.666" stroke="#10C7F9" stroke-width="2" stroke-linecap="round"/>
</svg>
