<svg width="37" height="37" viewBox="0 0 37 37" fill="none" xmlns="http://www.w3.org/2000/svg">
<path d="M30.8337 18.5V28.375C30.8337 30.2606 30.8337 31.2034 30.2479 31.7892C29.6621 32.375 28.7193 32.375 26.8337 32.375H10.0212C9.22716 32.375 8.83016 32.375 8.50171 32.3003C7.37638 32.0444 6.49762 31.1656 6.24169 30.0403C6.16699 29.7118 6.16699 29.3148 6.16699 28.5208V28.5208C6.16699 27.7268 6.16699 27.3298 6.24169 27.0014C6.49762 25.876 7.37638 24.9973 8.50171 24.7414C8.83016 24.6667 9.22716 24.6667 10.0212 24.6667H26.8337C28.7193 24.6667 29.6621 24.6667 30.2479 24.0809C30.8337 23.4951 30.8337 22.5523 30.8337 20.6667V8.625C30.8337 6.73938 30.8337 5.79657 30.2479 5.21079C29.6621 4.625 28.7193 4.625 26.8337 4.625H10.167C8.28137 4.625 7.33857 4.625 6.75278 5.21079C6.16699 5.79657 6.16699 6.73938 6.16699 8.625V28.5208" stroke="#0095FF" stroke-width="2"/>
<path d="M13.875 15.4173L16.2512 17.7935C16.6417 18.1841 17.2749 18.1841 17.6654 17.7935L23.125 12.334" stroke="#0095FF" stroke-width="2" stroke-linecap="round"/>
</svg>
