<svg width="168" height="168" viewBox="0 0 168 168" fill="none" xmlns="http://www.w3.org/2000/svg">
<path d="M84 168C130.392 168 168 130.392 168 84C168 37.6081 130.392 0 84 0C37.6081 0 0 37.6081 0 84C0 130.392 37.6081 168 84 168Z" fill="url(#paint0_linear_922_6501)"/>
<g clip-path="url(#clip0_922_6501)">
<path d="M118.695 35.5977C119.137 35.2674 119.307 34.7496 119.562 34.2553C120.447 32.5361 122.669 32.52 123.69 33.8157C125.123 35.6344 123.266 37.806 122.725 38.1448C121.611 37.0876 120.035 36.3314 118.694 35.5977H118.695Z" fill="#10C7F9"/>
<path d="M44.9045 38.3264C44.0939 37.4549 41.7826 35.6012 43.4328 33.6452C44.3039 32.6129 45.8099 32.3156 47.1284 33.4493C47.6427 34.2112 48.1059 35.1399 48.3889 36.015C45.104 38.1056 45.8945 37.5718 44.9041 38.3268L44.9045 38.3264Z" fill="#10C7F9"/>
<path d="M46.736 37.0539L45.8633 35.317C46.1974 34.6261 46.6058 34.0113 47.129 33.4492C47.6433 34.2111 48.1065 35.1398 48.3895 36.0149L46.736 37.0539Z" fill="#10C7F9"/>
<path d="M56.7422 50.0195C57.9023 51.8052 58.4465 52.5328 59.6501 54.2894L55.7296 57.2632C53.6267 54.2286 54.3377 55.2141 52.5879 52.8837C54.0019 52.1327 55.4269 50.9518 56.7418 50.0199L56.7422 50.0195Z" fill="#10C7F9"/>
<path d="M57.9635 51.9004C58.0885 51.9713 57.9965 51.877 59.6504 54.2908L57.9953 55.5341L56.2266 52.8383C56.7744 52.4354 57.3423 52.1711 57.9635 51.9004Z" fill="#10C7F9"/>
<path d="M52.5888 52.8848L53.9783 54.7357C41.5275 62.7731 40.621 64.0156 39.0908 62.3242C40.9995 61.0753 46.365 57.2244 52.5892 52.8848H52.5888Z" fill="#AB6728"/>
<path d="M114.679 52.7363C115.733 53.4277 127.449 60.9848 127.622 62.8567C126.946 63.8406 120.541 59.5344 120.411 59.4558C113.256 54.9974 113.288 55.1396 113.359 54.8411C113.874 54.2927 114.292 53.3914 114.679 52.7363H114.679Z" fill="#AB6728"/>
<path d="M71.4287 41.3887C71.9676 42.7339 70.4649 43.441 68.6997 44.7448C65.2597 47.2847 58.2685 52.0735 57.9641 51.9011L56.7432 50.0215C60.939 47.0345 67.2913 42.3729 71.4287 41.3891V41.3887Z" fill="#AB6728"/>
<path d="M95.6898 41.4395C97.3417 41.4395 98.135 42.0668 103.065 44.9314C110.448 49.7428 110.127 49.501 110.431 49.8185C109.071 51.9398 109.126 51.895 109.037 51.9184C107.399 50.9325 95.0807 43.2779 95.6898 41.4399V41.4395Z" fill="#AB6728"/>
<path d="M137.446 66.8164C138.467 67.3716 145.133 79.3711 143.784 92.7037C143.213 98.3532 141.34 104.388 136.956 111.937C136.464 111.801 147.175 94.2339 138.98 70.4385C138.589 69.3051 138.222 67.7245 137.446 66.8168V66.8164Z" fill="#FBCA45"/>
<path d="M29.3942 67.5547C23.5235 79.6263 24.073 99.4754 29.7191 110.684C29.9089 111.061 30.1665 111.427 30.2754 111.834C29.9932 111.684 29.6473 111.028 29.4639 110.742C20.558 96.8658 21.2582 78.7157 29.3942 67.5547Z" fill="#FBCA45"/>
<path d="M39.1652 63.373C39.1124 63.7892 35.0085 69.4632 33.4554 79.0268C31.4899 91.1331 33.3711 103.522 39.8013 114.063C41.3016 116.523 44.5227 120.144 41.4955 117.004C25.7289 100.651 28.4272 73.6703 39.1652 63.373Z" fill="#FBCA45"/>
<path d="M127.958 62.5762C128.578 62.9456 129.102 63.9666 129.508 64.5657C141.493 82.2666 137.919 104.896 125.03 117.6C125.037 117.587 143.357 95.0207 129.042 65.7284C128.601 64.8247 128.137 63.7824 127.542 62.9746C127.721 62.7136 127.698 62.9271 127.958 62.5762Z" fill="#FBCA45"/>
<path d="M83.7223 37.5272C85.6301 37.518 88.1176 37.0289 89.595 38.4918C91.117 39.9994 90.6861 42.4333 90.6982 44.3918C86.2698 44.3918 86.4472 44.3708 86.2694 44.4293C86.2469 45.9051 86.2509 45.3571 86.2509 46.8249L80.6842 46.889V44.6432C80.6084 44.169 80.7051 44.3318 76.6673 44.3318C76.6524 42.4603 76.2449 40.0969 77.6755 38.6425C79.2439 37.0482 81.683 37.5377 83.7223 37.5276V37.5272Z" fill="#10C7F9"/>
<path d="M80.6377 44.3552C81.4467 44.261 85.8707 44.2231 86.2693 44.4306C86.2467 45.9064 86.2508 45.3584 86.2508 46.8262L80.6841 46.8903C80.6841 44.3548 80.7038 44.767 80.6381 44.3556L80.6377 44.3552Z" fill="#10C7F9"/>
<path d="M98.7845 25.8664C101.014 27.1999 101.918 27.679 101.836 28.8957C101.753 30.1318 100.594 30.8558 99.4625 30.6657C98.9578 30.5811 98.4963 29.8836 96.3014 28.6407C88.0199 23.951 77.9216 24.3031 70.3164 28.799C67.5605 30.575 67.6096 30.6371 67.165 30.7076C66.1182 30.8736 65.0403 30.2277 64.9222 29.0432C64.6425 26.2386 82.3294 16.026 98.7845 25.8659V25.8664Z" fill="#FAA919"/>
<path d="M44.9047 38.3268C46.3131 37.253 45.4324 37.5975 44.966 40.4371C43.7728 47.7042 47.6212 53.8157 49.2162 55.2359C48.4201 55.7984 40.8806 61.1525 39.0901 62.3241C34.446 55.2827 35.1998 45.4911 44.9047 38.3268Z" fill="#FAA919"/>
<path d="M40.3247 61.5152C37.414 58.1861 36.2664 49.4308 40.4154 42.8809C40.4618 44.181 38.0102 51.4045 43.3838 59.3195L40.3243 61.5157L40.3247 61.5152Z" fill="#FAA919"/>
<path d="M65.0335 51.1621C65.3516 51.65 65.1855 55.6975 65.123 55.7765C61.8697 57.6153 57.1281 61.9835 54.9437 64.5339C39.9474 82.0434 47.557 101.187 47.5107 101.343C47.3736 101.804 45.943 102.409 45.0981 104.923C44.4411 106.878 45.0453 108.042 44.5338 108.638C33.6358 87.0469 44.1787 60.6902 65.0331 51.1621H65.0335Z" fill="#10C7F9"/>
<path d="M48.39 36.015C55.4522 32.1065 63.1557 32.7753 69.196 38.7841C70.679 40.2595 70.6294 40.3977 71.4288 41.3881C66.9028 42.4646 60.9173 47.0774 49.2171 55.236C48.6588 54.7389 48.1804 54.0032 47.7761 53.3759C42.7535 45.583 45.3841 38.9884 45.651 37.7584L48.39 36.015Z" fill="#FAA919"/>
<path d="M95.6895 41.4382C109.351 20.6516 139.92 44.4797 128.324 62.1669C128.19 62.3715 127.821 62.7724 127.623 62.8562C127.449 60.9787 115.672 53.3869 114.679 52.7359C110.453 49.8326 98.7546 41.4382 95.6899 41.4386L95.6895 41.4382Z" fill="url(#paint1_linear_922_6501)"/>
<path d="M103.334 130.369L105.992 128.906C110.494 133.629 111.145 134.621 113.783 134.819C113.022 136.106 111.828 136.469 110.559 136.143C108.11 135.513 103.338 130.382 103.334 130.369L103.334 130.369Z" fill="#10C7F9"/>
<path d="M110.866 125.422C112.486 127.783 114.521 132.222 113.782 134.821C111.163 134.623 110.593 133.735 105.991 128.908C109.261 126.875 108.879 126.629 110.866 125.422V125.422Z" fill="#10C7F9"/>
<path d="M110.245 125.799C111.878 127.869 113.612 131.338 113.511 133.993C112.256 132.024 113.074 131.368 109.699 126.191L110.245 125.799Z" fill="#10C7F9"/>
<path d="M55.9267 125.609C56.6563 125.984 57.3105 126.638 58.0268 127.079C60.1523 128.623 63.5387 130.123 64.1333 130.175C64.0656 130.748 56.3705 138.375 53.5464 135.788C51.8438 134.048 54.555 127.861 55.9267 125.609Z" fill="#10C7F9"/>
<path d="M55.9262 125.609C56.6558 125.984 57.31 126.638 58.0263 127.079C56.757 128.802 54.1195 132.669 53.7761 134.247C53.6657 134.754 53.7918 136.232 53.3577 135.566C52.0831 133.611 54.5065 127.939 55.9262 125.609Z" fill="#10C7F9"/>
<path d="M107.692 54.0703C110.367 49.7887 107.701 54.0752 110.431 49.8186L114.679 52.7371C112.793 55.9265 112.355 56.5836 111.941 57.2524C115.89 60.0542 120.904 67.1645 120.853 67.9324C121.303 68.1729 126.798 76.3127 126.887 89.8754C126.968 102.178 120.593 116.417 109.664 123.824L110.866 125.423C108.142 127.076 109.93 126.74 103.334 130.371L101.537 128.568C89.4174 133.494 79.9665 134.252 65.4152 128.603L64.133 130.175C63.4441 130.116 59.9968 128.511 58.0265 127.079C57.3102 126.639 56.656 125.985 55.9264 125.61L57.2175 123.673C50.8148 118.56 47.9984 114.977 44.5342 108.638C45.0397 108.049 44.4528 106.844 45.0985 104.924C45.9507 102.389 47.3707 101.814 47.511 101.343C47.5151 101.329 40.1078 81.8569 54.9441 64.5344C57.1442 61.9655 61.8829 57.609 65.1234 55.777C65.1851 55.6988 65.362 51.6658 65.0339 51.1626C78.3815 44.7235 94.1167 45.0688 107.693 54.0703H107.692Z" fill="#10C7F9"/>
<path d="M101.537 128.566L109.664 123.822L110.867 125.421C107.888 127.23 110.256 126.56 103.334 130.369L101.537 128.566Z" fill="#10C7F9"/>
<path d="M57.2179 123.672C59.7803 125.576 62.5185 127.249 65.4156 128.602L64.1333 130.174C63.4445 130.115 59.9972 128.51 58.0269 127.078C57.3106 126.638 56.6564 125.984 55.9268 125.609L57.2179 123.672Z" fill="#10C7F9"/>
<path d="M110.432 49.8184L114.679 52.7369C112.793 55.9263 112.355 56.5834 111.941 57.2522L107.693 54.0705C110.368 49.7894 107.74 54.0165 110.432 49.8188L110.432 49.8184Z" fill="#10C7F9"/>
<path d="M110.431 49.8184L114.679 52.7369C114.291 53.3917 113.874 54.2933 113.358 54.8417C112.053 53.8099 110.593 52.6358 109.094 51.9034L110.431 49.8184Z" fill="#10C7F9"/>
<path d="M65.1581 59.72C95.4703 43.1142 126.516 70.616 118.013 99.4102L116.63 103.425C115.064 103.443 113.54 103.439 111.98 103.257C111.967 103.255 109.261 102.818 109.248 102.811C109.92 102.386 112.174 97.4094 112.554 90.8305C113.321 90.7955 113.324 90.8934 113.357 90.4941C113.393 90.0566 113.453 88.4744 113.225 88.1956L112.494 88.1835C112.28 84.0433 111.213 79.4833 109.011 75.9274L109.696 75.4584C109.323 74.7847 108.776 74.1361 108.324 73.5084L107.737 73.8613C106.489 70.9459 101.728 67.2864 98.5503 65.3288L99.0949 64.0419L96.8501 63.0745L96.2922 64.3126C93.9954 63.4166 90.8883 62.0049 85.0564 61.6858V60.6515C84.873 60.5746 85.027 60.6096 82.4205 60.6096V61.7829C77.0332 62.1028 72.5746 63.0935 67.469 65.7953C65.302 63.6172 65.0142 59.8393 65.1581 59.7196V59.72Z" fill="white"/>
<path d="M68.5545 65.2226L68.0547 64.2387L70.1967 63.082L70.7856 64.2049C68.5719 65.2585 68.6283 65.2565 68.5541 65.2226H68.5545Z" fill="#1B3664"/>
<path d="M82.4208 61.7827V60.6095C85.4964 60.6095 85.0566 60.2811 85.0566 61.6856C90.7834 61.9987 93.8316 63.352 96.2925 64.3125L96.8504 63.0744L99.0952 64.0418L98.5506 65.3286C101.985 67.4447 106.555 71.0989 107.737 73.8612L108.324 73.5082C108.776 74.1364 109.324 74.7846 109.696 75.4583L109.012 75.9272C111.213 79.4832 112.28 84.0432 112.494 88.1834L113.225 88.1955C113.467 88.4908 113.415 90.3876 113.286 90.797L112.554 90.8304C112.046 99.6277 109.087 102.732 109.347 102.861C109.042 103.592 108.607 104.44 108.12 105.067L106.36 103.996C104.672 103.053 106.173 103.678 104.333 102.509C104.314 102.497 88.5696 91.9738 88.1222 91.5314C88.7405 89.8348 88.851 88.3506 87.4559 86.4791C86.4981 85.1943 84.7809 84.708 84.0255 84.8635C83.0456 84.8047 82.4748 84.8784 81.553 84.0372C80.9608 83.4965 80.8225 82.8079 80.7826 82.0392C79.7914 81.0122 75.4247 73.6601 70.6485 67.0252L69.7975 67.5393L68.6016 65.2428C71.4873 63.8693 75.1579 62.2138 82.4204 61.7827H82.4208Z" fill="white"/>
<path d="M68.6016 65.2446L70.7855 64.2051L72.0323 66.2768C70.3671 67.1793 70.8726 66.8912 69.7975 67.5407L68.6016 65.2442V65.2446Z" fill="#545C6B"/>
<path d="M105.377 103.295L106.625 101.303L109.349 102.862C109.043 103.594 108.609 104.442 108.122 105.069C105.5 103.474 105.544 103.603 105.377 103.295Z" fill="#545C6B"/>
<path d="M108.324 73.5098C108.777 74.1379 109.324 74.7861 109.696 75.4598L106.604 77.6096L105.233 75.5593C108.149 73.5839 107.542 73.9803 108.324 73.5098H108.324Z" fill="#545C6B"/>
<path d="M82.4209 60.611C84.9841 60.611 84.8636 60.5719 85.0567 60.6529V64.2427H82.3906C82.4269 61.2927 82.4209 62.0884 82.4209 60.611Z" fill="#545C6B"/>
<path d="M96.8504 63.0762L99.0952 64.0435L97.5477 67.7067L95.1836 66.5858C96.5146 63.8606 96.1482 64.6354 96.8508 63.0766L96.8504 63.0762Z" fill="#545C6B"/>
<path d="M113.225 88.1957C113.453 88.4745 113.394 90.0567 113.357 90.4943C113.323 90.9141 113.386 90.8307 109.473 90.8307V88.184C112.999 88.184 112.254 88.18 113.225 88.1961V88.1957Z" fill="#545C6B"/>
<path d="M88.4365 88.2703C90.8414 86.5274 90.6011 86.6394 93.2438 86.6346C93.8255 86.6346 100.708 86.5874 101.282 86.6837C102.948 86.9642 103.822 88.4843 103.561 89.7518C103.373 90.6656 102.492 91.6672 101.49 91.7957C100.195 91.9621 100.448 91.8179 93.2374 91.8179C90.9196 91.8058 90.5516 91.8944 88.4522 90.6269C88.5643 89.7989 88.5816 89.0991 88.4365 88.2699V88.2703Z" fill="#10C7F9"/>
<path d="M80.7825 82.0398C80.7825 80.634 80.7459 72.2099 80.8515 71.7058C81.4174 69.0016 85.5761 68.9617 86.1179 71.811C86.1908 72.1954 86.165 81.9149 86.165 82.2819C86.1142 83.5264 85.3891 84.2412 84.2814 84.8113C83.94 84.8814 84.2209 84.8757 82.8186 84.7911C81.3952 84.1598 80.8636 83.5937 80.7829 82.0394L80.7825 82.0398Z" fill="#10C7F9"/>
<path d="M65.089 59.7793C65.2551 60.2068 65.0842 63.4001 67.4693 65.797L68.5544 65.2228C68.6286 65.2567 68.5835 65.2083 69.798 67.5411L70.6489 67.027C74.0228 71.7131 80.1506 81.3859 80.7831 82.041C80.8637 83.5953 81.3958 84.1614 82.8187 84.7928C85.0494 84.9269 87.0596 84.7247 88.3834 88.2395C88.6402 88.391 88.5188 90.1368 88.4523 90.6279L88.1226 91.5332C88.6374 92.0417 107.798 104.873 108.121 105.069C110.354 102.193 107.822 102.774 111.981 103.258C113.541 103.44 115.065 103.444 116.631 103.427C103.582 134.002 55.4047 131.327 48.8157 96.7761C45.8393 81.1695 53.1966 66.5049 65.089 59.7797V59.7793Z" fill="white"/>
<path d="M68 113.863C68.6595 113.016 69.1343 112.121 69.6603 111.127L71.6315 112.3C69.7712 115.314 69.9623 115.107 69.6575 115.246C69.1359 114.998 68.0597 114.437 68 113.863Z" fill="#151A20"/>
<path d="M82.3926 114.944L84.8716 114.9C84.6596 118.618 84.9401 118.233 83.5132 118.594C82.3426 118.343 82.6107 118.659 82.3926 114.944V114.944Z" fill="#151A20"/>
<path d="M57.2587 88.1543L57.208 90.5576C54.3786 90.5576 55.1832 90.5765 53.5664 90.4842V88.1003C55.1993 88.1003 54.3835 88.0894 57.2587 88.1547V88.1543Z" fill="#151A20"/>
<path d="M60.5642 101.545L61.8356 103.562C58.9317 105.43 59.6073 105.025 58.5963 105.555C58.1041 104.978 57.7607 104.324 57.3955 103.664C58.4407 102.916 57.751 103.383 60.5642 101.545Z" fill="#151A20"/>
<path d="M59.7842 74.0489C60.1192 73.2761 60.6198 72.5264 61.1224 71.8535C60.9463 72.7415 60.6331 73.6089 60.5746 74.5151L59.7842 74.0489Z" fill="#9ED2DF"/>
<path d="M56.9844 75.2051L58.2985 73.166C61.5885 75.1189 61.655 75.1031 61.7622 75.3066L60.4087 77.3376C59.2361 76.6708 59.7641 77.006 56.9844 75.2055V75.2051Z" fill="#545C6B"/>
<path d="M95.3969 112.939L97.4672 111.797L98.874 114.128C98.7075 114.687 98.0541 114.982 97.5756 115.246C96.8057 115.672 96.8996 115.71 95.3965 112.939L95.3969 112.939Z" fill="#151A20"/>
<path d="M82.8181 84.791C85.0488 84.9252 87.059 84.7229 88.3828 88.2378C88.6396 88.3893 88.5182 90.135 88.4517 90.6262C86.6455 95.5822 81.5347 94.6455 80.0892 92.3929C79.3729 91.1068 79.5756 91.5327 79.1697 90.5041C78.6372 88.6326 79.709 85.6766 82.8181 84.791Z" fill="#10C7F9"/>
<path d="M147.995 17.0059H19.0049V140.996H147.995V17.0059Z" stroke="white" stroke-width="0.25" stroke-miterlimit="10"/>
</g>
<defs>
<linearGradient id="paint0_linear_922_6501" x1="84" y1="0" x2="84" y2="168" gradientUnits="userSpaceOnUse">
<stop stop-color="#E0F8FF"/>
<stop offset="1" stop-color="#F0F6F8"/>
</linearGradient>
<linearGradient id="paint1_linear_922_6501" x1="129.264" y1="61.3143" x2="103.383" y2="33.3782" gradientUnits="userSpaceOnUse">
<stop stop-color="#FBAF17"/>
<stop offset="1" stop-color="#F7941D"/>
</linearGradient>
<clipPath id="clip0_922_6501">
<rect width="129" height="124" fill="white" transform="translate(19 17)"/>
</clipPath>
</defs>
</svg>
