<svg width="26" height="32" viewBox="0 0 26 32" fill="none" xmlns="http://www.w3.org/2000/svg">
<path d="M13.0001 30.2497C14.4556 30.2497 15.8968 29.963 17.2415 29.406C18.5862 28.8491 19.808 28.0327 20.8372 27.0035C21.8664 25.9743 22.6828 24.7525 23.2397 23.4078C23.6886 22.3243 23.9619 21.178 24.0511 20.0122C24.0518 20.0034 24.0532 19.9947 24.0553 19.9862C24.0737 19.9104 24.0834 19.8312 24.0834 19.7497V19.0732C24.0834 11.3081 19.3268 7.13891 18.6272 6.56773C18.5753 6.52528 18.505 6.52782 18.4531 6.5703C18.0644 6.88809 16.4693 8.27905 15.104 10.7432C15.0393 10.8598 14.8634 10.8429 14.8217 10.7162C13.1147 5.53331 10.3258 2.41933 9.78274 1.84606C9.72975 1.79012 9.64701 1.78516 9.58907 1.83595C8.68081 2.63213 1.91675 8.90597 1.91675 19.1664C1.91675 20.6219 2.20343 22.0631 2.76042 23.4078C3.31741 24.7525 4.1338 25.9743 5.16298 27.0035C6.19216 28.0327 7.41398 28.8491 8.75867 29.406C10.1034 29.963 11.5446 30.2497 13.0001 30.2497ZM13.0001 30.2497C16.4979 30.2497 19.3334 27.4142 19.3334 23.9164C19.3334 23.7121 19.3237 23.5099 19.3048 23.3105C19.3045 23.3068 19.3042 23.3031 19.3038 23.2995C18.9248 19.3201 15.0085 15.9489 13.5466 14.8201C13.221 14.5687 12.7794 14.5687 12.4538 14.8201C10.9918 15.9489 7.07535 19.3201 6.69634 23.2995C6.69599 23.3031 6.69567 23.3068 6.69536 23.3104C6.67643 23.5099 6.66675 23.712 6.66675 23.9164C6.66675 27.4142 9.50228 30.2497 13.0001 30.2497Z" stroke="#10C7F9" stroke-width="2" stroke-linejoin="round"/>
</svg>
