<svg width="29" height="32" viewBox="0 0 29 32" fill="none" xmlns="http://www.w3.org/2000/svg">
<path d="M7.9987 6.66667C7.44641 6.66667 6.9987 7.11438 6.9987 7.66667C6.9987 8.21895 7.44641 8.66667 7.9987 8.66667V6.66667ZM14.6654 8.66667C15.2176 8.66667 15.6654 8.21895 15.6654 7.66667C15.6654 7.11438 15.2176 6.66667 14.6654 6.66667V8.66667ZM7.9987 20C7.44641 20 6.9987 20.4477 6.9987 21C6.9987 21.5523 7.44641 22 7.9987 22V20ZM12.9987 22C13.551 22 13.9987 21.5523 13.9987 21C13.9987 20.4477 13.551 20 12.9987 20V22ZM7.9987 13.3333C7.44641 13.3333 6.9987 13.781 6.9987 14.3333C6.9987 14.8856 7.44641 15.3333 7.9987 15.3333V13.3333ZM17.9987 15.3333C18.551 15.3333 18.9987 14.8856 18.9987 14.3333C18.9987 13.7811 18.551 13.3333 17.9987 13.3333V15.3333ZM2.21071 1.87868L2.91782 2.58579L2.91782 2.58579L2.21071 1.87868ZM23.7867 1.87868L23.0796 2.58579V2.58579L23.7867 1.87868ZM27.2916 31.7071C27.6821 32.0976 28.3153 32.0976 28.7058 31.7071C29.0963 31.3166 29.0963 30.6834 28.7058 30.2929L27.2916 31.7071ZM26.2058 27.7929C25.8153 27.4024 25.1821 27.4024 24.7916 27.7929C24.4011 28.1834 24.4011 28.8166 24.7916 29.2071L26.2058 27.7929ZM7.9987 8.66667L14.6654 8.66667V6.66667L7.9987 6.66667V8.66667ZM7.9987 22H12.9987V20H7.9987V22ZM7.9987 15.3333L17.9987 15.3333V13.3333L7.9987 13.3333V15.3333ZM18.6654 0H7.33204V2H18.6654V0ZM0.332031 7V25H2.33203V7H0.332031ZM25.6654 14.3333V7H23.6654V14.3333H25.6654ZM7.33203 32H12.9987V30H7.33203V32ZM7.33204 0C5.94609 0 4.80603 -0.00212371 3.90697 0.118752C2.97914 0.243496 2.15971 0.515465 1.5036 1.17158L2.91782 2.58579C3.14039 2.36322 3.46741 2.19584 4.17346 2.10092C4.90829 2.00212 5.88955 2 7.33204 2V0ZM2.33203 7C2.33203 5.55752 2.33415 4.57625 2.43295 3.84143C2.52788 3.13538 2.69525 2.80836 2.91782 2.58579L1.5036 1.17157C0.847495 1.82768 0.575527 2.64711 0.450783 3.57494C0.329908 4.474 0.332031 5.61406 0.332031 7H2.33203ZM18.6654 2C20.1078 2 21.0891 2.00212 21.8239 2.10092C22.53 2.19584 22.857 2.36322 23.0796 2.58579L24.4938 1.17158C23.8377 0.515465 23.0183 0.243496 22.0904 0.118752C21.1914 -0.00212371 20.0513 0 18.6654 0V2ZM25.6654 7C25.6654 5.61405 25.6675 4.474 25.5466 3.57494C25.4219 2.64711 25.1499 1.82768 24.4938 1.17157L23.0796 2.58579C23.3021 2.80836 23.4695 3.13538 23.5644 3.84143C23.6632 4.57625 23.6654 5.55752 23.6654 7H25.6654ZM0.332031 25C0.332031 26.3859 0.329908 27.526 0.450783 28.4251C0.575527 29.3529 0.847495 30.1723 1.5036 30.8284L2.91782 29.4142C2.69525 29.1916 2.52788 28.8646 2.43295 28.1586C2.33415 27.4237 2.33203 26.4425 2.33203 25H0.332031ZM7.33203 30C5.88955 30 4.90828 29.9979 4.17346 29.8991C3.46741 29.8042 3.14039 29.6368 2.91782 29.4142L1.5036 30.8284C2.15971 31.4845 2.97914 31.7565 3.90697 31.8812C4.80603 32.0021 5.94609 32 7.33203 32V30ZM25.332 25.1667C25.332 26.9156 23.9143 28.3333 22.1654 28.3333V30.3333C25.0188 30.3333 27.332 28.0201 27.332 25.1667H25.332ZM22.1654 28.3333C20.4165 28.3333 18.9987 26.9156 18.9987 25.1667H16.9987C16.9987 28.0201 19.3119 30.3333 22.1654 30.3333V28.3333ZM18.9987 25.1667C18.9987 23.4178 20.4165 22 22.1654 22V20C19.3119 20 16.9987 22.3132 16.9987 25.1667H18.9987ZM22.1654 22C23.9143 22 25.332 23.4178 25.332 25.1667H27.332C27.332 22.3132 25.0188 20 22.1654 20V22ZM28.7058 30.2929L26.2058 27.7929L24.7916 29.2071L27.2916 31.7071L28.7058 30.2929Z" fill="#0095FF"/>
</svg>
