<svg width="599" height="91" viewBox="0 0 599 91" fill="none" xmlns="http://www.w3.org/2000/svg">
<rect x="0.966797" y="0.5" width="598" height="90" rx="12" fill="white"/>
<path fill-rule="evenodd" clip-rule="evenodd" d="M65.2868 45.8855C65.2868 44.68 65.1786 43.5209 64.9777 42.4082H48.9668V48.9841H58.1159C57.7218 51.1091 56.5241 52.9096 54.7236 54.115V58.3805H60.2177C63.4323 55.4209 65.2868 51.0627 65.2868 45.8855Z" fill="#4285F4"/>
<path fill-rule="evenodd" clip-rule="evenodd" d="M48.9672 62.5005C53.5572 62.5005 57.4054 60.9782 60.2181 58.3818L54.724 54.1164C53.2018 55.1364 51.2545 55.7391 48.9672 55.7391C44.5395 55.7391 40.7918 52.7487 39.4549 48.7305H33.7754V53.135C36.5727 58.6909 42.3218 62.5005 48.9672 62.5005Z" fill="#34A853"/>
<path fill-rule="evenodd" clip-rule="evenodd" d="M39.4545 48.7298C39.1145 47.7098 38.9213 46.6202 38.9213 45.4998C38.9213 44.3793 39.1145 43.2898 39.4545 42.2698V37.8652H33.775C32.6236 40.1602 31.9668 42.7566 31.9668 45.4998C31.9668 48.243 32.6236 50.8393 33.775 53.1343L39.4545 48.7298Z" fill="#FBBC05"/>
<path fill-rule="evenodd" clip-rule="evenodd" d="M48.9672 35.2614C51.4631 35.2614 53.704 36.1191 55.4658 37.8036L60.3418 32.9277C57.3977 30.1845 53.5495 28.5 48.9672 28.5C42.3218 28.5 36.5727 32.3095 33.7754 37.8655L39.4549 42.27C40.7918 38.2518 44.5395 35.2614 48.9672 35.2614Z" fill="#EA4335"/>
<path d="M265.592 33.228H282.006V35.171H265.592V33.228ZM262.634 44.48H286.327V46.481H262.634V44.48ZM273.219 45.814H275.626V57.791H273.219V45.814ZM280.846 33.228H283.224V35.519C283.224 36.4277 283.204 37.3847 283.166 38.39C283.146 39.3953 283.069 40.507 282.934 41.725C282.798 42.9237 282.566 44.2577 282.238 45.727L279.831 45.408C280.353 43.3007 280.652 41.4543 280.73 39.869C280.807 38.2837 280.846 36.8337 280.846 35.519V33.228ZM292.327 32.648H309.205V34.591H292.327V32.648ZM289.311 41.29H313.091V43.233H289.311V41.29ZM307.639 32.648H310.017V34.33C310.017 35.258 309.988 36.3503 309.93 37.607C309.872 38.8443 309.669 40.2653 309.321 41.87L306.943 41.609C307.291 40.0237 307.494 38.6413 307.552 37.462C307.61 36.2827 307.639 35.2387 307.639 34.33V32.648ZM292.124 45.843H310.075V52.484H294.56V56.138H292.182V50.628H307.697V47.757H292.124V45.843ZM292.182 55.529H310.742V57.443H292.182V55.529ZM323.211 52.513H346.991V54.514H323.211V52.513ZM333.854 46.916H336.232V53.354H333.854V46.916ZM326.111 33.46H344.033V41.406H328.547V46.655H326.169V39.492H341.655V35.432H326.111V33.46ZM326.169 45.64H344.642V47.612H326.169V45.64ZM352.469 34.301H369.347V36.273H352.469V34.301ZM349.888 51.933H373.581V53.934H349.888V51.933ZM368.042 34.301H370.42V36.94C370.42 38.042 370.401 39.2213 370.362 40.478C370.343 41.7153 370.266 43.088 370.13 44.596C369.995 46.104 369.763 47.8053 369.434 49.7L366.998 49.439C367.346 47.6603 367.588 46.0267 367.723 44.538C367.878 43.0493 367.965 41.6767 367.984 40.42C368.023 39.1633 368.042 38.0033 368.042 36.94V34.301ZM395.648 31.546H398.055V50.686H395.648V31.546ZM381.206 55.21H398.867V57.182H381.206V55.21ZM381.206 48.743H383.613V55.877H381.206V48.743ZM383.99 33.373C385.305 33.373 386.475 33.6437 387.499 34.185C388.524 34.7263 389.336 35.49 389.935 36.476C390.535 37.4427 390.834 38.5543 390.834 39.811C390.834 41.0677 390.535 42.189 389.935 43.175C389.336 44.1417 388.524 44.9053 387.499 45.466C386.475 46.0073 385.305 46.278 383.99 46.278C382.695 46.278 381.525 46.0073 380.481 45.466C379.457 44.9053 378.645 44.1417 378.045 43.175C377.446 42.189 377.146 41.0677 377.146 39.811C377.146 38.5543 377.446 37.4427 378.045 36.476C378.645 35.49 379.457 34.7263 380.481 34.185C381.525 33.6437 382.695 33.373 383.99 33.373ZM383.99 35.461C383.14 35.461 382.376 35.6447 381.699 36.012C381.023 36.3793 380.481 36.8917 380.075 37.549C379.689 38.2063 379.495 38.9603 379.495 39.811C379.495 40.681 379.689 41.4447 380.075 42.102C380.481 42.74 381.023 43.2427 381.699 43.61C382.376 43.9773 383.14 44.161 383.99 44.161C384.841 44.161 385.605 43.9773 386.281 43.61C386.977 43.2427 387.519 42.74 387.905 42.102C388.292 41.4447 388.485 40.681 388.485 39.811C388.485 38.9603 388.292 38.2063 387.905 37.549C387.519 36.8917 386.977 36.3793 386.281 36.012C385.605 35.6447 384.841 35.461 383.99 35.461Z" fill="#1F1F1F"/>
</svg>
