<svg width="601" height="88" viewBox="0 0 601 88" fill="none" xmlns="http://www.w3.org/2000/svg">
<rect x="0.966797" width="600" height="88" rx="12" fill="#FEE500"/>
<g clip-path="url(#clip0_249_4055)">
<path opacity="0.902" fill-rule="evenodd" clip-rule="evenodd" d="M48.9668 27.8887C39.5468 27.8887 30.9668 35.4607 30.9668 41.8667C30.9668 46.6667 34.0828 50.9007 38.8288 53.4167L36.8328 60.7487C36.6548 61.3987 37.3928 61.9147 37.9588 61.5407L46.7128 55.7307C47.4508 55.8027 48.2028 55.8447 48.9668 55.8447C58.9068 55.8447 66.9668 49.5867 66.9668 41.8667C66.9668 35.4607 58.9068 27.8887 48.9668 27.8887Z" fill="black"/>
</g>
<path d="M269.042 34.251C269.014 41.5293 266.55 48.1846 257.487 52.6309L256.241 50.9316C260.985 48.6377 263.831 45.7207 265.36 42.3223L256.723 43.1436L256.354 41.1895L266.04 40.5381C266.479 39.1221 266.734 37.6353 266.833 36.0918H257.629V34.251H269.042ZM275.471 31.6172V41.8691H279.549V43.7383H275.471V56.7939H273.262V31.6172H275.471ZM294.105 34.251C294.077 41.5293 291.613 48.1846 282.551 52.6309L281.305 50.9316C286.048 48.6377 288.895 45.7207 290.424 42.3223L281.786 43.1436L281.418 41.1895L291.104 40.5381C291.542 39.1221 291.797 37.6353 291.896 36.0918H282.692V34.251H294.105ZM300.534 31.6172V41.8691H304.612V43.7383H300.534V56.7939H298.325V31.6172H300.534ZM317.583 33.2598C322.936 33.2881 326.787 35.8936 326.787 39.8584C326.787 43.6108 323.445 46.103 318.659 46.4004V51.6963H329.166V53.5654H306.113V51.6963H316.479V46.4004C311.707 46.0889 308.379 43.5967 308.379 39.8584C308.379 35.8936 312.23 33.2881 317.583 33.2598ZM317.583 35.1006C313.505 35.1006 310.531 37.0264 310.531 39.8584C310.531 42.7754 313.505 44.6445 317.583 44.6729C321.661 44.6445 324.635 42.7754 324.635 39.8584C324.635 37.0264 321.661 35.1006 317.583 35.1006ZM361.508 51.8096V53.6787H338.455V51.8096H348.82V47.0518H341.344V39.292H356.41V35.3271H341.287V33.4863H358.591V41.1045H343.553V45.2109H359.186V47.0518H351.001V51.8096H361.508ZM383.371 34.3076V36.8281C383.371 40 383.371 43.5967 382.437 49.0625L380.171 48.8359C381.19 43.6816 381.19 39.915 381.19 36.8281V36.1484H366.011V34.3076H383.371ZM386.458 51.2432V53.084H363.519V51.2432H386.458ZM409.369 31.6455V50.0537H407.16V31.6455H409.369ZM410.162 54.3867V56.2559H393.113V48.1846H395.322V54.3867H410.162ZM395.775 33.4014C399.542 33.4014 402.374 35.9502 402.374 39.5752C402.374 43.2568 399.542 45.7773 395.775 45.7773C392.009 45.7773 389.177 43.2568 389.177 39.5752C389.177 35.9502 392.009 33.4014 395.775 33.4014ZM395.775 35.3555C393.227 35.3555 391.329 37.1113 391.357 39.5752C391.329 42.0957 393.227 43.8232 395.775 43.8232C398.268 43.8232 400.193 42.0957 400.193 39.5752C400.193 37.1113 398.268 35.3555 395.775 35.3555Z" fill="black"/>
<defs>
<clipPath id="clip0_249_4055">
<rect width="36" height="36" fill="white" transform="translate(30.9668 26)"/>
</clipPath>
</defs>
</svg>
