<svg width="1149" height="378" viewBox="0 0 1149 378" fill="none" xmlns="http://www.w3.org/2000/svg">
<path d="M312.207 259.383V289.769H309.644V273.841H305.166V288.196H302.705V260.066H305.166V271.619H309.644V259.383H312.207ZM298.74 263.108V265.33H290.024V279.959C294.211 279.942 297.117 279.788 300.483 279.104L300.723 281.36C297.065 282.112 293.955 282.249 289.307 282.249H287.358V263.108H298.74ZM335.163 262.664V264.852H317.048V262.664H324.772V259.246H327.438V262.664H335.163ZM326.105 266.424C330.48 266.458 333.386 268.577 333.42 271.927C333.386 275.242 330.48 277.396 326.105 277.396C321.73 277.396 318.757 275.242 318.791 271.927C318.757 268.577 321.73 266.458 326.105 266.424ZM326.105 268.509C323.234 268.543 321.32 269.876 321.354 271.927C321.32 273.943 323.234 275.242 326.105 275.242C328.942 275.242 330.856 273.943 330.891 271.927C330.856 269.876 328.942 268.543 326.105 268.509ZM340.734 259.383V267.825H345.314V270.081H340.734V278.387H338.068V259.383H340.734ZM340.734 280.062V289.769H338.068V282.249H320.842V280.062H340.734ZM372.133 262.459V265.843C372.133 269.739 372.133 273.67 371.039 279.31L368.407 279.002C369.501 273.636 369.501 269.637 369.501 265.843V264.681H350.634V262.459H372.133ZM375.414 283.24V285.462H347.729V283.24H354.599V273.226H357.265V283.24H362.187V273.226H364.818V283.24H375.414ZM412.918 259.383V275.276H410.252V271.38H403.074V274.046H389.3V260.818H391.966V265.193H400.442V260.818H403.074V263.758H410.252V259.383H412.918ZM412.918 276.746V283.89H395.965V287.205H414.08V289.358H393.299V281.839H410.252V278.899H393.23V276.746H412.918ZM391.966 271.858H400.442V267.312H391.966V271.858ZM403.074 269.261H410.252V265.843H403.074V269.261ZM452.883 259.417V281.634H450.217V259.417H452.883ZM453.84 286.863V289.119H433.264V279.378H435.93V286.863H453.84ZM436.477 261.536C441.022 261.536 444.44 264.612 444.44 268.987C444.44 273.431 441.022 276.473 436.477 276.473C431.931 276.473 428.513 273.431 428.513 268.987C428.513 264.612 431.931 261.536 436.477 261.536ZM436.477 263.895C433.4 263.895 431.11 266.014 431.145 268.987C431.11 272.029 433.4 274.114 436.477 274.114C439.484 274.114 441.809 272.029 441.809 268.987C441.809 266.014 439.484 263.895 436.477 263.895ZM483.734 259.383V289.837H481.068V273.089H474.643V270.867H481.068V259.383H483.734ZM474.13 262.186V264.407H462.646V270.73H472.797V272.918H462.646V280.267C468.234 280.267 471.789 280.079 475.976 279.344L476.283 281.565C471.874 282.283 468.148 282.488 462.27 282.488H459.945V262.186H474.13ZM517.081 277.122V279.378H509.972V289.769H507.306V279.378H499.034V289.769H496.3V279.378H489.259V277.122H517.081ZM495.479 260.613V264.749H510.792V260.613H513.492V273.533H492.813V260.613H495.479ZM495.479 271.346H510.792V266.902H495.479V271.346ZM539.272 261.092L531.274 290.726H528.608L536.572 261.092H539.272ZM575.854 259.383V275.14H573.222V259.383H575.854ZM575.888 276.678V283.958H558.832V287.239H576.981V289.427H556.2V281.873H573.222V278.831H556.132V276.678H575.888ZM561.566 262.596C561.532 266.902 564.813 270.696 569.325 272.166L567.992 274.251C564.438 273.038 561.601 270.491 560.233 267.21C558.866 270.748 556.012 273.533 552.406 274.832L551.005 272.713C555.585 271.106 558.832 267.073 558.832 262.596V260.271H561.566V262.596ZM606.739 259.383V277.806H604.039V270.867H598.878V268.646H604.039V259.383H606.739ZM606.739 279.446V289.358H586.881V279.446H606.739ZM589.547 281.6V287.171H604.107V281.6H589.547ZM599.322 262.596V264.783H581.583V262.596H589.137V259.109H591.769V262.596H599.322ZM590.436 266.355C594.571 266.355 597.477 268.577 597.511 271.756C597.477 275.037 594.571 277.19 590.436 277.19C586.3 277.19 583.395 275.037 583.395 271.756C583.395 268.577 586.3 266.355 590.436 266.355ZM590.436 268.44C587.804 268.44 585.958 269.808 585.958 271.756C585.958 273.772 587.804 275.105 590.436 275.14C593.067 275.105 594.913 273.772 594.913 271.756C594.913 269.808 593.067 268.44 590.436 268.44ZM632.451 268.714C632.451 273.875 636.211 279.104 640.688 281.053L639.185 283.172C635.63 281.548 632.554 278.045 631.152 273.841C629.717 278.301 626.658 282.181 623.188 283.924L621.582 281.805C625.923 279.72 629.717 273.978 629.751 268.714V264.749H622.573V262.527H639.697V264.749H632.451V268.714ZM646.636 259.383V289.769H643.936V259.383H646.636ZM677.385 259.417V282.488H674.685V279.344H668.396V277.396H674.685V259.417H677.385ZM678.137 286.863V289.119H656.535V280.232H659.235V286.863H678.137ZM652.16 273.499C657.834 273.465 665.422 273.431 671.95 272.61L672.121 274.559C669.404 274.986 666.567 275.259 663.781 275.413V281.429H661.081V275.55C658.005 275.687 655.083 275.704 652.536 275.687L652.16 273.499ZM662.141 260.647C666.584 260.647 669.626 262.767 669.66 265.945C669.626 269.192 666.584 271.209 662.141 271.209C657.663 271.209 654.621 269.192 654.621 265.945C654.621 262.767 657.663 260.647 662.141 260.647ZM662.141 262.698C659.167 262.664 657.15 263.997 657.185 265.945C657.15 267.928 659.167 269.227 662.141 269.227C665.012 269.227 667.062 267.928 667.097 265.945C667.062 263.997 665.012 262.664 662.141 262.698ZM693.368 268.714C693.334 273.602 696.854 278.968 701.264 281.053L699.726 283.172C696.308 281.514 693.419 277.891 692.069 273.772C690.668 278.25 687.609 282.181 684.208 283.924L682.567 281.805C686.942 279.686 690.702 273.909 690.736 268.714V264.749H683.661V262.527H700.204V264.749H693.368V268.714ZM706.596 259.383V271.688H711.688V273.978H706.596V289.769H703.93V259.383H706.596ZM749.158 259.383V289.769H746.561V273.67H742.322V288.23H739.759V260.032H742.322V271.448H746.561V259.383H749.158ZM735.862 262.938V281.6H724.241V262.938H735.862ZM726.771 265.091V279.446H733.333V265.091H726.771ZM764.902 265.74C764.902 269.603 768.218 273.021 772.764 274.319L771.499 276.404C767.91 275.345 765.039 273.038 763.638 270.013C762.305 273.345 759.468 275.96 755.811 277.19L754.478 275.071C758.989 273.636 762.236 269.91 762.236 265.74V265.33H755.229V263.177H762.236V259.383H764.937V263.177H771.875V265.33H764.902V265.74ZM778.95 259.417V278.045H776.284V259.417H778.95ZM768.799 278.694C775.156 278.66 779.019 280.677 779.053 284.163C779.019 287.718 775.156 289.7 768.799 289.7C762.407 289.7 758.545 287.718 758.545 284.163C758.545 280.677 762.407 278.66 768.799 278.694ZM768.799 280.813C764.048 280.813 761.245 282.078 761.245 284.163C761.245 286.316 764.048 287.581 768.799 287.581C773.516 287.581 776.387 286.316 776.387 284.163C776.387 282.078 773.516 280.813 768.799 280.813ZM818.949 260.34V262.459H814.267V268.338H818.847V270.423H796.596V268.338H801.176V262.459H796.493V260.34H818.949ZM821.581 272.986V275.14H793.896V272.986H821.581ZM818.026 277.874V284.471H799.979V287.376H818.949V289.427H797.313V282.522H815.395V279.891H797.245V277.874H818.026ZM803.842 268.338H811.601V262.459H803.842V268.338ZM850.45 259.417V280.13H847.887V269.603H843.614V277.498H841.119V259.998H843.614V267.381H847.887V259.417H850.45ZM837.496 261.775V270.286H828.644V274.832C832.643 274.815 835.702 274.627 839.308 273.909L839.615 276.062C835.685 276.849 832.472 276.985 828.028 276.985H826.046V268.235H834.933V263.997H825.978V261.775H837.496ZM841.632 279.48C841.632 283.479 846.759 286.727 852.091 287.547L850.997 289.632C846.485 288.863 842.145 286.539 840.299 283.138C838.453 286.539 834.112 288.863 829.601 289.632L828.507 287.547C833.805 286.727 838.932 283.479 838.966 279.48V278.694H841.632V279.48ZM883.079 274.729V276.917H855.394V274.729H867.869V271.209H858.094V268.987H862.674V262.596H857.991V260.374H880.447V262.596H875.765V268.987H880.345V271.209H870.535V274.729H883.079ZM879.695 279.856V289.358H858.777V279.856H879.695ZM861.443 281.941V287.171H877.063V281.941H861.443ZM865.34 268.987H873.099V262.596H865.34V268.987Z" fill="white"/>
<path d="M21.3379 359.744C31.0547 359.744 37.1582 362.82 37.207 368.143C37.1582 373.367 31.0547 376.492 21.3379 376.492C11.7188 376.492 5.51758 373.367 5.51758 368.143C5.51758 362.82 11.7188 359.744 21.3379 359.744ZM21.3379 364.383C15.2344 364.383 11.7188 365.652 11.7188 368.143C11.7188 370.535 15.2344 371.756 21.3379 371.756C27.4414 371.756 31.0059 370.535 31.0059 368.143C31.0059 365.652 27.4414 364.383 21.3379 364.383ZM36.9629 334.061V337.674C36.9629 341.189 36.9629 344.998 35.6934 349.588L29.5898 349.002C30.5664 344.974 30.6885 341.971 30.7617 338.943H5.95703V334.061H36.9629ZM41.748 351.883V356.912H1.41602V351.883H16.5527V344.119H22.7051V351.883H41.748ZM79.9352 332.059V342.508H85.941V347.586H79.9352V357.84H73.6852V332.059H79.9352ZM67.5328 334.988C67.5816 346.854 60.1109 355.154 46.8785 358.816L44.3883 353.787C54.1783 351.175 59.7936 346.146 60.7457 339.969H46.4879V334.988H67.5328ZM65.4332 358.377C74.4664 358.377 80.4234 361.893 80.4234 367.459C80.4234 373.074 74.4664 376.541 65.4332 376.541C56.4 376.541 50.3453 373.074 50.3941 367.459C50.3453 361.893 56.4 358.377 65.4332 358.377ZM65.4332 363.211C59.818 363.211 56.4977 364.725 56.5465 367.459C56.4977 370.145 59.818 371.707 65.4332 371.658C70.9508 371.707 74.2711 370.145 74.2711 367.459C74.2711 364.725 70.9508 363.211 65.4332 363.211ZM117.003 342.117C117.003 350.271 120.714 358.475 128.233 361.648L124.571 366.629C119.493 364.334 115.977 359.915 113.975 354.422C111.949 360.403 108.311 365.237 102.891 367.703L99.1316 362.527C106.895 359.256 110.655 350.76 110.704 342.117V335.477H117.003V342.117ZM136.925 332.059V376.59H130.626V332.059H136.925ZM178.334 332.059V344.51H184.34V349.637H178.334V363.895H172.036V332.059H178.334ZM166.225 335.379C166.225 347.391 158.705 355.789 145.375 359.549L142.788 354.617C152.724 351.834 158.364 346.683 159.389 340.457H144.741V335.379H166.225ZM179.848 370.73V375.711H149.428V360.623H155.727V370.73H179.848ZM224.969 332.059V376.492H219.012V332.059H224.969ZM215.691 332.693V374.441H209.832V353.445H206.268C205.682 362.186 201.971 367.459 196.502 367.459C190.643 367.459 186.834 361.307 186.834 351.297C186.834 341.336 190.643 335.232 196.502 335.232C201.849 335.232 205.511 340.213 206.219 348.514H209.832V332.693H215.691ZM196.502 341.092C194.012 341.092 192.547 344.51 192.596 351.297C192.547 358.133 194.012 361.502 196.502 361.453C199.041 361.502 200.555 358.133 200.555 351.297C200.555 344.51 199.041 341.092 196.502 341.092ZM291.923 332.059V376.492H285.966V354.227H282.206V374.441H276.298V361.697L272.782 366.385C268.656 364.212 265.995 360.525 264.432 355.936C262.943 361.209 260.306 365.481 256.083 367.996L252.225 363.211C258.964 359.402 261.259 351.541 261.259 343.045V341.629H253.739V336.648H274.1V341.629H267.313V343.045C267.313 350.784 269.608 358.157 276.298 361.6V332.693H282.206V349.148H285.966V332.059H291.923ZM312.678 360.672C312.678 364.212 314.167 367.923 317.805 370.34C321.467 367.801 323.079 363.968 323.079 360.672V358.914H329.231V360.672C329.182 365.311 331.672 369.559 337.58 371.316L334.553 375.955C330.305 374.515 327.522 371.805 326.008 368.387C324.519 371.805 321.931 374.783 317.952 376.346C313.752 374.832 311.164 371.951 309.748 368.484C308.137 371.829 305.403 374.49 301.35 375.955L298.274 371.316C304.133 369.412 306.575 365.018 306.623 360.672V358.914H312.678V360.672ZM320.491 334.842V354.715H298.762V334.842H320.491ZM304.914 339.773V349.783H314.289V339.773H304.914ZM333.723 332.107V357.4H327.473V332.107H333.723ZM375.963 344.168V349.051H344.908V333.621H351.109V344.168H375.963ZM380.504 353.836V358.719H339.83V353.836H380.504ZM376.256 370.535V375.516H344.518V362.332H350.768V370.535H376.256ZM432.073 332.059V354.568H425.872V332.059H432.073ZM432.122 356.473V368.533H408.489V371.268H433.343V376.199H402.386V363.895H425.921V361.307H402.288V356.473H432.122ZM411.956 336.453C411.907 341.824 415.13 347 422.405 349.1L419.378 353.885C414.276 352.396 410.76 349.319 408.782 345.389C406.732 349.686 403.094 353.104 397.796 354.666L394.72 349.783C402.142 347.586 405.462 341.971 405.462 336.453V333.035H411.956V336.453ZM475.729 332.059V358.914H469.528V350.174H463.766V345.096H469.528V332.059H475.729ZM475.729 360.818V376.004H445.846V360.818H475.729ZM452.096 365.701V371.023H469.626V365.701H452.096ZM464.548 335.916V340.896H438.376V335.916H448.434V331.668H454.587V335.916H464.548ZM451.511 342.361C457.761 342.361 462.155 345.682 462.155 350.32C462.155 355.154 457.761 358.377 451.511 358.377C445.309 358.377 440.817 355.154 440.817 350.32C440.817 345.682 445.309 342.361 451.511 342.361ZM451.511 347.049C448.63 347.049 446.774 348.221 446.823 350.32C446.774 352.566 448.63 353.787 451.511 353.787C454.343 353.787 456.198 352.566 456.198 350.32C456.198 348.221 454.343 347.049 451.511 347.049ZM510.111 334.988L498.686 377.322H492.484L503.861 334.988H510.111ZM560.9 332.107V364.041H554.65V332.107H560.9ZM562.071 370.73V375.711H531.114V360.818H537.413V370.73H562.071ZM536.534 334.939C543.37 334.939 548.693 339.627 548.693 346.121C548.693 352.762 543.37 357.4 536.534 357.4C529.698 357.4 524.376 352.762 524.376 346.121C524.376 339.627 529.698 334.939 536.534 334.939ZM536.534 340.359C533.068 340.311 530.431 342.508 530.48 346.121C530.431 349.832 533.068 351.98 536.534 351.98C539.904 351.98 542.54 349.832 542.54 346.121C542.54 342.508 539.904 340.311 536.534 340.359ZM604.555 332.059V376.59H598.403V352.762H590.591V347.732H598.403V332.059H604.555ZM589.858 335.77V340.799H575.307V348.172H588.247V353.055H575.307V361.453C581.46 361.404 586.391 361.185 591.909 360.33L592.544 365.311C586.05 366.287 580.239 366.531 572.622 366.531H569.106V335.77H589.858ZM651.043 357.205V362.234H641.864V376.492H635.614V362.234H625.897V376.492H619.5V362.234H610.37V357.205H651.043ZM621.307 333.719V338.65H639.959V333.719H646.209V353.006H615.155V333.719H621.307ZM621.307 348.074H639.959V343.533H621.307V348.074ZM700.513 332.059V349.441H707.056V354.568H700.513V376.492H694.361V332.059H700.513ZM691.334 338.699V343.68H665.211V338.699H675.269V332.742H681.519V338.699H691.334ZM678.394 346.17C684.888 346.17 689.722 350.564 689.722 356.766C689.722 362.967 684.888 367.361 678.394 367.361C671.851 367.361 667.017 362.967 667.017 356.766C667.017 350.564 671.851 346.17 678.394 346.17ZM678.394 351.199C675.269 351.248 672.974 353.348 672.974 356.766C672.974 360.232 675.269 362.283 678.394 362.234C681.519 362.283 683.765 360.232 683.765 356.766C683.765 353.348 681.519 351.248 678.394 351.199ZM745.439 335.916V340.115C745.439 345.682 745.439 351.932 743.632 361.355L737.382 360.721C739.067 352.322 739.14 346.072 739.189 340.848H713.017V335.916H745.439ZM749.345 365.994V371.072H708.818V365.994H723.32V350.711H729.521V365.994H749.345ZM801.207 332.059V376.492H794.909V332.059H801.207ZM787.877 336.697C787.877 350.174 783.141 361.355 767.272 368.875L764 363.895C775.475 358.475 780.529 351.443 781.53 341.58H766.393V336.697H787.877ZM847.891 366.141V371.316H807.217V366.141H847.891ZM844.473 335.965V340.945H838.223V354.422H844.277V359.305H810.586V354.422H816.543V340.945H810.391V335.965H844.473ZM822.793 354.422H832.07V340.945H822.793V354.422ZM875.629 335.721V340.799H859.173V348.123H873.773V353.006H859.173V361.404C865.985 361.355 871.429 361.111 877.63 360.135L878.216 365.164C871.234 366.189 864.838 366.385 856.83 366.385H853.021V335.721H875.629ZM887.933 332.059V376.492H881.634V332.059H887.933ZM929.831 333.768V337.967C929.831 342.361 929.831 346.707 928.562 352.615L922.409 352.127C922.849 350.149 923.117 348.343 923.288 346.658L898.142 347.732L897.361 342.605L923.63 342.068L923.679 338.699H898.581V333.768H929.831ZM934.372 354.861V359.793H894.04V354.861H909.128V349.295H915.378V354.861H934.372ZM930.564 370.828V375.809H898.728V362.527H904.978V370.828H930.564ZM984.233 332.059V342.166H990.239V347.293H984.233V357.986H977.983V332.059H984.233ZM956.498 334.646V340.311H965.58V334.646H971.83V355.789H950.297V334.646H956.498ZM956.498 350.906H965.58V345.145H956.498V350.906ZM984.477 359.988V364.92H961.381V371.023H985.307V375.906H955.18V359.988H984.477ZM1004.3 335.184C1011.09 335.184 1015.97 341.336 1016.02 351.004C1015.97 360.77 1011.09 366.873 1004.3 366.873C997.518 366.873 992.537 360.77 992.586 351.004C992.537 341.336 997.518 335.184 1004.3 335.184ZM1004.3 340.799C1000.89 340.799 998.592 344.412 998.592 351.004C998.592 357.645 1000.89 361.209 1004.3 361.209C1007.77 361.209 1010.02 357.645 1010.07 351.004C1010.02 344.412 1007.77 340.799 1004.3 340.799ZM1027.4 332.059V348.807H1033.94V353.982H1027.4V376.492H1021.15V332.059H1027.4ZM1070.96 332.059V340.896H1076.96V346.072H1070.96V354.275H1064.71V332.059H1070.96ZM1058.8 333.67C1058.8 345.584 1051.18 352.713 1037.76 355.496L1035.46 350.369C1045.96 348.392 1051.04 343.875 1051.82 338.699H1037.71V333.67H1058.8ZM1070.96 355.984V368.24H1047.67V371.121H1072.23V376.053H1041.56V363.602H1064.76V360.916H1041.47V355.984H1070.96ZM1097.18 336.355V353.494H1086.29V361.453C1090.52 361.404 1094.55 361.233 1099.09 360.525L1099.53 365.506C1093.72 366.482 1088.93 366.629 1083.41 366.629H1080.34V348.514H1091.18V341.385H1080.29V336.355H1097.18ZM1117.5 332.059V376.492H1111.59V353.885H1107.29V374.344H1101.58V332.791H1107.29V348.855H1111.59V332.059H1117.5ZM1130.19 360.867C1130.24 354.812 1131.85 352.908 1134.78 351.102C1136.88 349.734 1138.49 348.221 1138.49 345.975C1138.49 343.533 1136.59 341.922 1134.25 341.922C1131.95 341.922 1129.85 343.436 1129.75 346.316H1122.82C1122.97 339.432 1128.05 336.16 1134.3 336.16C1141.08 336.16 1145.92 339.725 1145.92 345.73C1145.92 349.734 1143.87 352.322 1140.64 354.227C1137.91 355.887 1136.69 357.449 1136.64 360.867V361.404H1130.19V360.867ZM1133.56 372.439C1131.27 372.439 1129.41 370.584 1129.46 368.338C1129.41 366.092 1131.27 364.285 1133.56 364.285C1135.71 364.285 1137.62 366.092 1137.62 368.338C1137.62 370.584 1135.71 372.439 1133.56 372.439Z" fill="white"/>
<path d="M533.357 229.34C532.064 230.076 530.142 230.977 527.718 231.529C518.99 233.478 511.663 228.936 509.49 227.593C507.335 226.251 502.72 223.014 498.302 215.474C493.472 207.253 493.759 202.251 493.184 160.688C493.094 154.545 493.005 147.373 497.548 143.989C500.206 142.021 504.354 141.415 507.784 142.794C510.568 143.916 512.453 146.141 513.962 148.9C517.823 155.943 517.194 162.729 516.943 182.941C516.817 193.074 516.889 197.984 520.247 202.14C522.277 204.642 526.299 207.897 526.748 208.246C531.83 212.311 533.59 212.2 535.278 215.235C535.853 216.246 537.811 220.127 536.661 224.504C536.374 225.625 535.943 226.526 535.602 227.115" fill="white"/>
<path d="M606.332 211.669C605.115 211.669 603.953 211.888 602.866 212.253C603.559 209.901 603.953 207.422 603.953 204.852C603.953 190.033 591.605 178.021 576.371 178.021C561.137 178.021 548.789 190.033 548.789 204.852C548.789 219.671 561.137 231.683 576.371 231.683C584.072 231.683 591.043 228.603 596.045 223.645C596.926 228.402 601.18 232.011 606.314 232.011C612.085 232.011 616.769 227.454 616.769 221.84C616.769 216.226 612.085 211.669 606.314 211.669H606.332ZM592.748 208.826C592.542 211.979 590.705 214.44 590.368 214.841C586.283 219.872 577.177 220.072 576.296 220.072V220.017C573.56 219.981 566.684 219.452 563.086 215.424C562.73 215.023 560.762 212.654 560.406 209.518C560.294 208.516 560.406 207.805 560.912 207.295C561.681 206.511 563.123 206.31 564.135 206.803C565.503 207.441 564.978 208.844 566.552 210.922C567.733 212.471 569.194 213.255 569.831 213.583C571.349 214.367 572.68 214.586 573.335 214.695C574.61 214.896 575.678 214.859 576.521 214.768C576.521 214.768 576.521 214.768 576.54 214.768C576.671 214.768 576.821 214.75 576.933 214.732V214.804C577.776 214.859 578.844 214.841 580.1 214.586C580.756 214.458 582.067 214.166 583.547 213.31C584.166 212.945 585.59 212.107 586.677 210.503C588.157 208.352 587.557 206.967 588.888 206.274C589.881 205.745 591.324 205.873 592.129 206.62C592.673 207.112 592.804 207.823 592.729 208.826H592.748Z" fill="white"/>
<path d="M559.771 181.04C561.664 180.092 560.877 178.123 563.032 175.152C564.643 172.929 566.667 171.799 567.547 171.306C569.646 170.158 571.52 169.794 572.438 169.629C574.218 169.301 575.736 169.32 576.898 169.411V169.502C577.066 169.484 577.272 169.465 577.46 169.447C577.46 169.447 577.478 169.447 577.497 169.447C578.659 169.356 580.195 169.338 581.957 169.648C582.894 169.812 584.749 170.176 586.847 171.325C587.728 171.799 589.752 172.947 591.363 175.171C593.518 178.142 592.731 180.11 594.623 181.058C596.029 181.769 598.071 181.532 599.177 180.475C599.926 179.764 600.076 178.78 599.964 177.358C599.57 172.929 596.891 169.538 596.403 168.955C591.475 163.177 581.807 162.229 577.966 162.065V161.992C576.71 161.992 563.912 161.956 557.991 168.9C557.504 169.465 554.825 172.874 554.431 177.303C554.3 178.725 554.469 179.709 555.218 180.42C556.342 181.477 558.366 181.714 559.771 181.003V181.04Z" fill="white"/>
<path d="M684.863 170.972C679.635 168.602 673.414 170.789 670.978 175.875C670.135 177.625 669.873 179.502 670.079 181.288C668.467 180.067 666.706 178.973 664.757 178.099C658.461 175.237 651.641 174.909 645.457 176.659C645.738 159.926 646.001 153.674 642.272 147.221C640.698 144.487 638.731 142.263 635.826 141.17C632.247 139.821 627.938 140.404 625.146 142.355C620.386 145.708 620.499 152.817 620.592 158.905C621.173 200.099 620.892 205.039 625.933 213.205C630.542 220.678 635.358 223.886 637.606 225.216C639.855 226.547 647.5 231.049 656.625 229.117C656.869 229.062 657.093 228.99 657.337 228.935C666.106 227.604 674.051 222.191 678.098 213.77C681.902 205.859 681.359 197.092 677.48 189.928C682.371 191.35 687.73 189.126 689.941 184.496C692.376 179.411 690.128 173.359 684.9 170.99L684.863 170.972ZM668.823 205.367C668.617 208.52 666.781 210.981 666.444 211.382C662.359 216.413 653.252 216.613 652.372 216.613V216.558C649.636 216.522 642.759 215.993 639.162 211.965C638.806 211.564 636.838 209.195 636.482 206.059C636.37 205.057 636.482 204.346 636.988 203.836C637.756 203.052 639.199 202.851 640.211 203.344C641.56 203.982 641.054 205.385 642.628 207.463C643.808 209.012 645.27 209.796 645.907 210.124C647.425 210.908 648.755 211.127 649.411 211.236C650.685 211.437 651.753 211.4 652.596 211.309C652.596 211.309 652.596 211.309 652.615 211.309C652.746 211.309 652.896 211.291 653.009 211.272V211.345C653.852 211.4 654.92 211.382 656.175 211.127C656.831 210.999 658.143 210.707 659.623 209.851C660.241 209.486 661.665 208.648 662.752 207.044C664.233 204.893 663.633 203.508 664.963 202.815C665.956 202.286 667.399 202.414 668.205 203.161C668.748 203.653 668.879 204.364 668.804 205.367H668.823Z" fill="white"/>
<path d="M716.156 208.489C710.928 206.119 704.707 208.307 702.271 213.392C699.835 218.477 702.084 224.529 707.312 226.898C712.54 229.268 718.761 227.081 721.196 221.995C723.632 216.91 721.384 210.858 716.156 208.489Z" fill="white"/>
<path d="M438.954 190.37C438.64 188.991 437.843 185.544 435.536 182.877C433.676 180.718 431.755 180.119 430.801 179.92C401.45 179.992 372.1 180.083 342.749 180.156C321.093 180.101 299.436 180.047 277.767 179.974C276.813 180.174 274.893 180.773 273.033 182.931C270.726 185.598 269.928 189.045 269.614 190.424C268.274 196.447 269.155 203.849 271.982 208.185C274.965 212.775 279.47 212.902 281.439 212.92C311.104 213.174 347.279 213.029 361.664 212.956C379.287 213.01 405.001 213.047 427.117 212.865C429.086 212.865 433.591 212.72 436.574 208.13C439.401 203.794 440.283 196.393 438.942 190.37H438.954Z" fill="white"/>
<path d="M642.816 194.347C641.605 193.789 640.155 194.3 639.582 195.492C639.008 196.669 639.534 198.078 640.761 198.635C641.972 199.192 643.422 198.681 643.995 197.489C644.569 196.313 644.043 194.904 642.816 194.347Z" fill="white"/>
<path d="M882.466 190.37C882.188 188.991 881.482 185.544 879.439 182.877C877.791 180.718 876.09 180.119 875.245 179.92C849.249 179.992 823.253 180.083 797.256 180.156C778.075 180.101 758.893 180.047 739.701 179.974C738.856 180.174 737.155 180.773 735.507 182.931C733.464 185.598 732.758 189.045 732.48 190.424C731.292 196.447 732.073 203.849 734.577 208.185C737.219 212.775 741.209 212.902 742.953 212.92C769.228 213.174 801.268 213.029 814.009 212.956C829.618 213.01 852.394 213.047 871.982 212.865C873.726 212.865 877.716 212.72 880.359 208.13C882.862 203.794 883.643 196.393 882.455 190.37H882.466Z" fill="white"/>
<path d="M578.685 29.8977C578.002 25.942 576.515 22.0295 574.083 18.3192C563.008 1.3701 537.376 -4.95333 516.836 4.18533C496.295 13.324 488.632 34.4743 499.707 51.4234C508.595 65.023 526.861 71.7652 544.357 69.1809C544.235 73.873 544.06 78.3773 544.042 82.7517C544.007 83.0405 543.972 83.3148 543.955 83.5458C543.727 90.3168 543.5 97.0877 543.29 103.859C543.185 104.176 542.083 107.439 537.761 108.637C537.499 108.71 537.236 108.738 536.991 108.796C536.991 108.753 536.991 108.724 536.991 108.695C536.081 108.854 533.999 109.099 531.707 108.464C527.386 107.266 526.284 104.003 526.179 103.685C525.951 96.9145 525.724 90.1435 525.514 83.3725C525.479 82.2897 525.164 80.5429 523.607 78.8826C520.055 75.1434 513.039 75.0279 510.467 74.9846C508.122 74.9413 500.687 74.8258 497.082 78.4928C495.805 79.7922 495.403 81.1492 495.28 82.0732C495.018 83.719 494.615 86.2455 494.213 89.3206C493.758 92.7855 493.356 96.568 493.251 98.0695C493.058 100.899 492.218 113.503 503.661 123.031C505.83 124.836 509.575 127.478 515.628 129.773C517.133 130.322 518.935 130.885 521.052 131.347C524.919 132.199 528.383 132.386 530.973 132.386L532.74 132.3L538.513 132.574C541.085 132.574 544.55 132.386 548.434 131.535C550.533 131.073 552.353 130.51 553.858 129.961C559.911 127.68 563.673 125.023 565.825 123.219C569.657 120.028 572.089 116.491 573.663 113.084C577.985 108.435 578.387 101.043 578.737 94.5612C581.047 51.38 582.079 38.8776 578.737 29.8977H578.685ZM565.125 36.9141C564.653 41.4329 561.433 44.9122 560.839 45.4897C553.7 52.5928 538.286 52.5639 536.781 52.5494V52.4773C532.162 52.3329 520.51 51.3512 514.579 45.4464C513.984 44.8689 510.764 41.3896 510.292 36.8708C510.134 35.4271 510.327 34.4165 511.237 33.6947C512.584 32.6119 515.033 32.3664 516.731 33.0883C519.005 34.0556 518.06 36.0623 520.667 39.1085C522.609 41.3752 525.041 42.5446 526.091 43.0354C528.628 44.2193 530.868 44.5802 531.987 44.7534C534.122 45.0855 535.959 45.071 537.359 44.97H537.394C537.621 44.9556 537.866 44.9411 538.076 44.9267V45.0277C539.493 45.1288 541.33 45.1432 543.447 44.8112C544.567 44.6379 546.807 44.277 549.344 43.0932C550.393 42.6023 552.843 41.4329 554.767 39.1663C557.374 36.1201 556.43 34.1278 558.704 33.146C560.401 32.4242 562.851 32.6552 564.198 33.7524C565.09 34.4743 565.283 35.4848 565.143 36.9286L565.125 36.9141Z" fill="white"/>
<path d="M677.95 21.1408C666.455 1.58648 639.863 -5.71831 618.536 4.82948C597.227 15.3773 589.267 39.7801 600.761 59.3505C612.255 78.9049 638.848 86.2097 660.175 75.6619C681.484 65.1141 689.444 40.7113 677.95 21.1408ZM668.642 42.6057C668.152 47.8234 664.811 51.837 664.199 52.5113C656.798 60.6991 640.79 60.683 639.233 60.667V60.5867C634.439 60.4101 622.35 59.2863 616.192 52.4631C615.579 51.7888 612.238 47.7752 611.748 42.5575C611.59 40.8879 611.8 39.7159 612.728 38.881C614.127 37.6288 616.664 37.3559 618.431 38.1907C620.793 39.3145 619.813 41.6264 622.507 45.1262C624.519 47.7431 627.056 49.0917 628.141 49.6536C630.765 51.0182 633.092 51.4356 634.264 51.6283C636.486 52.0136 638.393 51.9976 639.845 51.8852H639.88C640.125 51.8691 640.37 51.8531 640.58 51.821V51.9333C642.05 52.0457 643.957 52.0618 646.161 51.6765C647.316 51.4838 649.643 51.0664 652.284 49.7018C653.369 49.1399 655.906 47.7913 657.918 45.1744C660.612 41.6585 659.632 39.3466 661.994 38.2389C663.761 37.404 666.298 37.677 667.698 38.9292C668.625 39.764 668.835 40.936 668.677 42.6057H668.642Z" fill="white"/>
</svg>
