<svg width="1440" height="261" viewBox="0 0 1440 261" fill="none" xmlns="http://www.w3.org/2000/svg">
<path d="M1438.37 189.891C1381.38 171.555 1341.61 130.918 1271.39 138.862C1225.09 144.101 1198.78 168.31 1167.16 186.372C1118.79 213.997 1044.41 230.475 973.26 229.335C902.099 228.195 835.964 209.458 800.842 180.489C774.165 158.488 765.345 132.015 745.895 108.073C726.444 84.1305 690.698 60.9698 637.519 57.5033C568.37 52.9931 503.788 83.4333 469.159 114.829C434.529 146.224 414.948 181.831 366.246 208.742C276.142 258.52 120.328 260.264 -1.32129 241.623C-122.983 222.984 -232.776 188.587 -360.588 179.95C-493.844 170.941 -638.383 193.636 -747.311 237.628L-739.004 396.834C-650.951 382.839 -566.626 361.562 -491.444 333.919C-417.535 306.746 -342.54 271.734 -253.634 271.23C-126.051 270.509 -56.659 339.83 59.8383 360.86C153.707 377.807 263.411 360.997 361.066 341.084C458.72 321.172 559.592 297.544 661.502 300.94C814.511 306.042 925.98 370.435 1076.33 382.214C1180.48 390.376 1290.19 372.162 1389.72 348.833C1489.23 325.505 1584.96 296.629 1689.51 280.973C1701.52 279.171 1713.74 277.58 1726.06 276.205L1720.82 175.704C1627.62 195.788 1517.34 215.306 1438.38 189.899L1438.37 189.891Z" fill="#C7E8FA"/>
<path d="M-293.119 353.827C-242.309 338.422 -197.859 311.445 -146.859 296.469C-74.0784 275.104 10.1221 280.471 77.8124 310.781C144.933 340.834 192.783 392.038 251.993 431.385C311.204 470.741 395.314 498.484 464.034 470.853C516.685 449.683 543.785 403.058 570.985 361.105C598.185 319.142 636.005 274.777 693.965 266.487C751.396 258.268 806.546 289.375 843.816 325.44C881.086 361.504 908.867 404.408 953.447 434.645C998.027 464.883 1068.97 478.408 1113.34 447.965C1142.18 428.185 1153.5 394.308 1185.74 378.289C1215.07 363.712 1253.55 368.394 1285.11 379.557C1316.67 390.72 1344.78 407.669 1376.89 417.768C1446.52 439.665 1523.58 426.815 1598 416.306V126.123C1536.39 109.348 1467.28 109.828 1407.47 130.631C1364.94 145.413 1327.96 168.945 1286.19 185.065C1244.42 201.186 1193.45 209.2 1152.55 191.689C1090.79 165.244 1068.42 88.7907 998.857 82.6674C935.097 77.0451 895.207 135.19 841.326 163.148C776.516 196.78 691.016 184.892 617.805 165.346C544.585 145.801 469.894 119.397 393.464 127.82C318.884 136.039 250.883 177.01 175.923 171.51C114.793 167.023 64.6724 132.737 14.9021 103.869C-34.8681 75.0006 -97.0285 49.2606 -155.379 64.5636C-193.909 74.6633 -221.989 100.598 -253.609 120.971C-296.229 148.438 -348.06 166.215 -402 173.054V359.664C-367.85 368.036 -327.44 364.244 -293.129 353.848L-293.119 353.827Z" fill="#10C7F9" fill-opacity="0.5"/>
</svg>
