<svg width="177" height="268" viewBox="0 0 177 268" fill="none" xmlns="http://www.w3.org/2000/svg">
<path d="M31.8018 23.1465C31.7204 22.2839 31.46 21.5433 31.0205 20.9248C30.5811 20.3063 29.9626 19.8424 29.165 19.5332C28.3675 19.2077 27.3991 19.0449 26.2598 19.0449C25.1693 19.0449 24.2415 19.1914 23.4766 19.4844C22.7116 19.7773 22.1338 20.1842 21.7432 20.7051C21.3525 21.2259 21.1572 21.8281 21.1572 22.5117C21.1247 23.5371 21.556 24.359 22.4512 24.9775C23.3464 25.5798 24.6647 26.0843 26.4062 26.4912L29.4824 27.1748C33.0306 27.9561 35.708 29.2174 37.5146 30.959C39.3213 32.6842 40.2409 34.9466 40.2734 37.7461C40.2734 39.9596 39.7119 41.8721 38.5889 43.4834C37.4658 45.0785 35.8626 46.3073 33.7793 47.1699C31.696 48.0163 29.1976 48.4395 26.2842 48.4395C23.3057 48.4395 20.7259 47.9919 18.5449 47.0967C16.3639 46.2015 14.6794 44.8587 13.4912 43.0684C12.3031 41.2617 11.6764 39.0238 11.6113 36.3545H19.6191C19.7005 37.4775 20.0179 38.4297 20.5713 39.2109C21.1247 39.9759 21.8815 40.5537 22.8418 40.9443C23.8021 41.335 24.9089 41.5303 26.1621 41.5303C27.334 41.5303 28.3431 41.3675 29.1895 41.042C30.0358 40.7165 30.6787 40.2689 31.1182 39.6992C31.5739 39.1296 31.8018 38.4704 31.8018 37.7217C31.8018 37.0544 31.5983 36.4766 31.1914 35.9883C30.7845 35.5 30.166 35.0768 29.3359 34.7188C28.5059 34.3607 27.4154 34.027 26.0645 33.7178L22.3535 32.8389C19.1797 32.1227 16.7546 30.9671 15.0781 29.3721C13.4017 27.777 12.5635 25.6774 12.5635 23.0732C12.5635 20.9248 13.1494 19.0286 14.3213 17.3848C15.4932 15.7409 17.1208 14.4632 19.2041 13.5518C21.2874 12.624 23.6556 12.1602 26.3086 12.1602C28.9941 12.1602 31.346 12.6159 33.3643 13.5273C35.3988 14.4388 36.9694 15.7246 38.0762 17.3848C39.1992 19.0449 39.7689 20.9655 39.7852 23.1465H31.8018ZM44.5459 21.4863H52.7734V48H44.5459V21.4863ZM48.6475 18.3125C47.8825 18.3125 47.1745 18.1335 46.5234 17.7754C45.8724 17.4173 45.3434 16.9372 44.9365 16.335C44.5459 15.7165 44.3506 15.0573 44.3506 14.3574C44.3506 13.625 44.5459 12.9577 44.9365 12.3555C45.3434 11.7533 45.8724 11.2731 46.5234 10.915C47.1745 10.557 47.8825 10.3779 48.6475 10.3779C49.4287 10.3779 50.1449 10.557 50.7959 10.915C51.4469 11.2731 51.9596 11.7533 52.334 12.3555C52.7246 12.9577 52.9199 13.625 52.9199 14.3574C52.9199 15.0573 52.7246 15.7165 52.334 16.335C51.9596 16.9372 51.4469 17.4173 50.7959 17.7754C50.1449 18.1335 49.4287 18.3125 48.6475 18.3125ZM70.3271 58.498C67.8695 58.498 65.7129 58.14 63.8574 57.4238C62.002 56.7077 60.5534 55.7067 59.5117 54.4209C58.4863 53.1514 57.9085 51.6702 57.7783 49.9775H65.7861C65.9814 50.9215 66.486 51.6133 67.2998 52.0527C68.1136 52.5085 69.196 52.7363 70.5469 52.7363C72.1257 52.7363 73.3626 52.3701 74.2578 51.6377C75.153 50.9053 75.6006 49.7171 75.6006 48.0732V43.3857H75.2832C74.9251 44.2321 74.4124 44.9727 73.7451 45.6074C73.0778 46.2259 72.2314 46.7223 71.2061 47.0967C70.1969 47.471 69.0495 47.6582 67.7637 47.6582C65.7617 47.6582 63.9551 47.1862 62.3438 46.2422C60.7487 45.2819 59.4792 43.8333 58.5352 41.8965C57.6074 39.9596 57.1436 37.5426 57.1436 34.6455C57.1436 31.667 57.6237 29.1686 58.584 27.1504C59.5443 25.1159 60.8219 23.6104 62.417 22.6338C64.012 21.641 65.7861 21.1445 67.7393 21.1445C69.0739 21.1445 70.2376 21.3724 71.2305 21.8281C72.2396 22.2839 73.0534 22.8617 73.6719 23.5615C74.2904 24.2451 74.8112 25.0671 75.2344 26.0273H75.5029V21.4863H83.7061V48.1465C83.7061 50.3275 83.1445 52.1992 82.0215 53.7617C80.9147 55.3242 79.3522 56.5042 77.334 57.3018C75.332 58.0993 72.9964 58.498 70.3271 58.498ZM70.5469 41.6035C71.6048 41.6035 72.5081 41.3268 73.2568 40.7734C74.0218 40.2201 74.6077 39.4225 75.0146 38.3809C75.4215 37.3392 75.625 36.1022 75.625 34.6699C75.625 33.2214 75.4215 31.9681 75.0146 30.9102C74.6077 29.8359 74.0299 29.014 73.2812 28.4443C72.5326 27.8747 71.6211 27.5898 70.5469 27.5898C69.4889 27.5898 68.5856 27.8828 67.8369 28.4688C67.0882 29.0384 66.5186 29.8604 66.1279 30.9346C65.7373 31.9925 65.542 33.2376 65.542 34.6699C65.542 36.1022 65.7373 37.3392 66.1279 38.3809C66.5186 39.4062 67.0882 40.2038 67.8369 40.7734C68.5856 41.3268 69.4889 41.6035 70.5469 41.6035ZM97.207 48H88.9795V21.4863H96.792V26.2959H97.0605C97.679 24.7008 98.6882 23.4476 100.088 22.5361C101.488 21.6084 103.164 21.1445 105.117 21.1445C106.973 21.1445 108.592 21.5596 109.976 22.3896C111.359 23.2035 112.425 24.359 113.174 25.8564C113.939 27.3538 114.321 29.0954 114.321 31.0811V48H106.094V32.668C106.094 31.6589 105.923 30.8044 105.581 30.1045C105.256 29.4046 104.767 28.8594 104.116 28.4688C103.465 28.0781 102.676 27.8828 101.748 27.8828C100.837 27.8828 100.039 28.0863 99.3555 28.4932C98.6719 28.8838 98.1429 29.4453 97.7686 30.1777C97.3942 30.9102 97.207 31.7891 97.207 32.8145V48ZM130.776 21.4863H139.004V48H130.776V21.4863ZM134.878 18.3125C134.113 18.3125 133.405 18.1335 132.754 17.7754C132.103 17.4173 131.574 16.9372 131.167 16.335C130.776 15.7165 130.581 15.0573 130.581 14.3574C130.581 13.625 130.776 12.9577 131.167 12.3555C131.574 11.7533 132.103 11.2731 132.754 10.915C133.405 10.557 134.113 10.3779 134.878 10.3779C135.659 10.3779 136.375 10.557 137.026 10.915C137.677 11.2731 138.19 11.7533 138.564 12.3555C138.955 12.9577 139.15 13.625 139.15 14.3574C139.15 15.0573 138.955 15.7165 138.564 16.335C138.19 16.9372 137.677 17.4173 137.026 17.7754C136.375 18.1335 135.659 18.3125 134.878 18.3125ZM152.529 48H144.302V21.4863H152.114V26.2959H152.383C153.001 24.7008 154.01 23.4476 155.41 22.5361C156.81 21.6084 158.486 21.1445 160.439 21.1445C162.295 21.1445 163.914 21.5596 165.298 22.3896C166.681 23.2035 167.747 24.359 168.496 25.8564C169.261 27.3538 169.644 29.0954 169.644 31.0811V48H161.416V32.668C161.416 31.6589 161.245 30.8044 160.903 30.1045C160.578 29.4046 160.09 28.8594 159.438 28.4688C158.787 28.0781 157.998 27.8828 157.07 27.8828C156.159 27.8828 155.361 28.0863 154.678 28.4932C153.994 28.8838 153.465 29.4453 153.091 30.1777C152.716 30.9102 152.529 31.7891 152.529 32.8145V48Z" fill="black"/>
<path d="M23.999 82.4404V84.4229H19.8975V101H17.5732V84.4229H14.7021V82.4404H17.5732V79.7744C17.5732 76.8691 19.3848 75.0918 22.4268 75.0918C23.042 75.0918 23.8281 75.1943 24.3408 75.2969V77.3818C23.7939 77.2793 23.2812 77.2793 22.9053 77.2793C20.8545 77.2793 19.8975 78.2363 19.8975 80.2529V82.4404H23.999ZM34.1504 101.376C29.2969 101.376 25.9131 97.4795 25.9131 91.8057C25.9131 86.0977 29.2969 82.167 34.1504 82.167C39.0039 82.167 42.3535 86.0977 42.3535 91.8057C42.3535 97.4795 39.0039 101.376 34.1504 101.376ZM34.1504 99.291C37.9443 99.291 40.0293 95.873 40.0293 91.8057C40.0293 87.7383 37.9443 84.2861 34.1504 84.2861C30.3223 84.2861 28.2373 87.7383 28.2373 91.8057C28.2373 95.873 30.3223 99.291 34.1504 99.291ZM46.4209 101V82.4404H48.6768V85.3115H48.8477C49.5996 83.4316 51.582 82.167 53.8721 82.167C54.248 82.167 54.7949 82.167 55.0684 82.2012V84.5596C54.8633 84.5254 54.3164 84.4229 53.7012 84.4229C50.8643 84.4229 48.7793 86.3711 48.7793 89.0713V101H46.4209ZM73.7305 108.349C69.6289 108.349 66.6553 106.605 66.2109 103.324H68.6719C69.1162 105.307 71.0645 106.298 73.7305 106.298C77.1143 106.298 79.165 104.726 79.165 101.342V97.2402H78.96C78.2422 98.8467 76.6699 100.795 73.2861 100.795C68.8428 100.795 65.6299 97.2744 65.6299 91.5664C65.6299 85.8926 68.7402 82.167 73.3203 82.167C76.7725 82.167 78.2422 84.3203 78.9941 85.8926H79.1992V82.4404H81.4893V101.479C81.4893 106.195 78.208 108.349 73.7305 108.349ZM73.5938 98.71C77.1143 98.71 79.1992 96.0439 79.1992 91.6348C79.1992 87.3623 77.1826 84.2861 73.5938 84.2861C69.9365 84.2861 67.9883 87.5332 67.9883 91.6348C67.9883 95.8047 69.9707 98.71 73.5938 98.71ZM93.8281 101.376C88.9746 101.376 85.5908 97.4795 85.5908 91.8057C85.5908 86.0977 88.9746 82.167 93.8281 82.167C98.6816 82.167 102.031 86.0977 102.031 91.8057C102.031 97.4795 98.6816 101.376 93.8281 101.376ZM93.8281 99.291C97.6221 99.291 99.707 95.873 99.707 91.8057C99.707 87.7383 97.6221 84.2861 93.8281 84.2861C90 84.2861 87.915 87.7383 87.915 91.8057C87.915 95.873 90 99.291 93.8281 99.291ZM116.899 76.2539V101H114.541V76.2539H116.899ZM121.411 95.8047C121.411 92.0449 124.453 90.6094 128.247 90.3018C129.478 90.2163 132.485 90.0454 133.374 89.9941V88.251C133.374 85.7559 131.768 84.252 128.862 84.252C126.436 84.252 124.795 85.3799 124.351 87.0547H121.924C122.3 84.1152 125.137 82.167 128.999 82.167C131.768 82.167 135.698 83.3633 135.698 88.4561V101H133.374V98.1289H133.237C132.485 99.7354 130.64 101.41 127.529 101.41C124.146 101.41 121.411 99.3936 121.411 95.8047ZM123.735 95.9072C123.735 98.0947 125.479 99.3252 127.871 99.3252C131.289 99.3252 133.374 96.8643 133.374 93.9248V91.9424L128.589 92.2842C125.308 92.5234 123.735 93.7881 123.735 95.9072ZM141.167 101V76.2539H143.491V85.8926H143.696C144.414 84.3203 145.884 82.167 149.302 82.167C153.882 82.167 157.026 85.9951 157.026 91.7715C157.026 97.5479 153.916 101.376 149.336 101.376C145.952 101.376 144.448 99.2568 143.696 97.6504H143.423V101H141.167ZM143.457 91.7373C143.457 96.1465 145.508 99.291 149.028 99.291C152.686 99.291 154.668 95.9756 154.668 91.7373C154.668 87.5332 152.72 84.2861 149.028 84.2861C145.474 84.2861 143.457 87.3623 143.457 91.7373Z" fill="#10C7F9"/>
<path d="M85 164.5H93C94.0609 164.5 95.0783 164.921 95.8284 165.672C96.5786 166.422 97 167.439 97 168.5V196.5C97 197.561 96.5786 198.578 95.8284 199.328C95.0783 200.079 94.0609 200.5 93 200.5H85M75 192.5L85 182.5M85 182.5L75 172.5M85 182.5H61" stroke="#1E1E1E" stroke-width="4" stroke-linecap="round" stroke-linejoin="round"/>
</svg>
