<svg width="608" height="44" viewBox="0 0 608 44" fill="none" xmlns="http://www.w3.org/2000/svg">
<path d="M23.9277 16.1719C23.0977 13.1934 20.7051 11.4844 17.2383 11.4844C12.0625 11.4844 8.74219 15.3906 8.74219 22.2754C8.74219 29.209 11.8672 33.1641 17.2383 33.1641C21.9502 33.1641 24.6113 30.6982 24.709 26.8652H17.5801V20.7617H32.7168V25.4004C32.7168 34.8242 26.2227 40.4883 17.1895 40.4883C7.08203 40.4883 0.246094 33.5547 0.246094 22.373C0.246094 10.8008 7.66797 4.16016 17.043 4.16016C25.1973 4.16016 31.4961 9.14062 32.375 16.1719H23.9277ZM50.502 40.4883C42.2012 40.4883 37.1719 34.9707 37.1719 26.8164C37.1719 18.6621 42.2012 13.1445 50.502 13.1445C58.8027 13.1445 63.832 18.6621 63.832 26.8164C63.832 34.9707 58.8027 40.4883 50.502 40.4883ZM50.5508 34.2871C53.6758 34.2871 55.4336 31.2109 55.4336 26.7676C55.4336 22.3242 53.6758 19.248 50.5508 19.248C47.3281 19.248 45.5703 22.3242 45.5703 26.7676C45.5703 31.2109 47.3281 34.2871 50.5508 34.2871ZM80.3105 40V4.64844H88.6113V33.2129H103.455V40H80.3105ZM107.031 32.627C107.031 26.7676 111.572 24.668 116.846 24.3262C118.75 24.2041 122.07 24.082 123.193 24.0332V21.8848C123.193 20.0293 121.826 19.0039 119.58 19.0039C117.383 19.0039 116.016 19.9316 115.674 21.6895H108.008C108.35 17.002 112.354 13.1445 119.775 13.1445C126.318 13.1445 131.445 16.2695 131.445 21.9824V40H123.682V36.2891H123.486C122.021 38.9746 119.482 40.4883 115.771 40.4883C110.693 40.4883 107.031 37.9004 107.031 32.627ZM114.844 32.2852C114.844 34.0918 116.26 35.0195 118.262 35.0195C121.045 35.0195 123.291 33.2129 123.242 30.5762V28.8672C122.241 28.916 119.434 29.0381 118.213 29.1602C116.162 29.4043 114.844 30.5273 114.844 32.2852ZM137.023 40V4.64844H145.227V18.0273H145.422C146.447 15.6348 148.693 13.1445 152.941 13.1445C158.508 13.1445 163.537 17.4414 163.537 26.7676C163.537 35.752 158.801 40.3906 152.893 40.3906C148.84 40.3906 146.496 38.0957 145.422 35.7031H145.178V40H137.023ZM145.08 26.7188C145.08 31.1133 146.936 33.9453 150.109 33.9453C153.283 33.9453 155.09 31.1133 155.09 26.7188C155.09 22.4219 153.332 19.5898 150.109 19.5898C146.887 19.5898 145.08 22.3242 145.08 26.7188Z" fill="#10C7F9"/>
<path d="M216.1 0.742188V43.8086H213.121V0.742188H216.1ZM207.555 1.71875V41.5625H204.576V20.4199H198.375C198.009 28.7695 194.42 34.043 189.098 34.043C183.531 34.043 179.918 28.2812 179.918 19.2969C179.918 10.2637 183.531 4.55078 189.098 4.55078C194.347 4.55078 197.911 9.62891 198.326 17.7832H204.576V1.71875H207.555ZM189.098 7.43164C185.289 7.43164 182.799 12.168 182.848 19.2969C182.799 26.377 185.289 31.1621 189.098 31.1621C192.955 31.1621 195.445 26.377 195.445 19.2969C195.445 12.168 192.955 7.43164 189.098 7.43164ZM255.186 3.76953C264.316 3.76953 270.811 8.16406 270.811 14.8535C270.811 21.2012 265.049 25.376 256.748 25.8398V35.459H275.059V38.0957H235.605V35.459H253.672V25.8398C245.396 25.4004 239.609 21.2012 239.609 14.8535C239.609 8.16406 246.104 3.76953 255.186 3.76953ZM255.186 6.30859C247.91 6.30859 242.539 9.77539 242.539 14.8535C242.539 19.9316 247.91 23.3984 255.186 23.3984C262.461 23.3984 267.881 19.9316 267.881 14.8535C267.881 9.77539 262.461 6.30859 255.186 6.30859ZM314.719 0.742188V32.3828H311.643V0.742188H314.719ZM316.135 40.1953V42.7832H287.229V29.502H290.305V40.1953H316.135ZM294.162 7.5293C294.113 14.4141 299.094 20.4199 305.295 22.7637L303.635 25.2539C298.654 23.2275 294.528 19.126 292.648 13.8281C290.817 19.4434 286.691 23.9111 281.711 26.0352L279.953 23.5938C286.203 21.0547 291.037 14.6582 291.086 7.5293V3.13477H294.162V7.5293ZM371.09 0.742188V23.0078H368.014V14.0723H357.857V11.5332H368.014V0.742188H371.09ZM357.564 2.98828C357.564 13.5352 349.752 20.7129 337.447 23.8379L336.324 21.2988C346.847 18.6133 353.585 13.1201 354.342 5.625H338.521V2.98828H357.564ZM371.09 24.9609V35.0195H346.578V40.8301H372.75V43.3691H343.551V32.5781H368.014V27.5H343.404V24.9609H371.09ZM425.215 0.742188V16.123H431.953V18.7598H425.215V34.4336H422.139V0.742188H425.215ZM426.826 40.1953V42.7832H398.359V32.1387H401.436V40.1953H426.826ZM391.719 26.5723C395.283 26.5967 399.458 26.5723 403.828 26.377V22.8613C398.677 22.4707 395.381 20.0537 395.381 16.3184C395.381 12.168 399.336 9.67773 405.342 9.72656C411.348 9.67773 415.254 12.168 415.303 16.3184C415.254 20.0537 412.007 22.4463 406.904 22.8613V26.2305C411.104 26.0352 415.352 25.6445 419.258 25.0098L419.502 27.3047C410.225 29.0137 399.727 29.1602 392.158 29.209L391.719 26.5723ZM417.891 5.23438V7.62695H392.842V5.23438H403.828V0.595703H406.904V5.23438H417.891ZM405.342 11.9727C401.045 11.9727 398.311 13.6816 398.311 16.3184C398.311 18.9062 401.045 20.6152 405.342 20.6152C409.59 20.6152 412.324 18.9062 412.373 16.3184C412.324 13.6816 409.59 11.9727 405.342 11.9727ZM447.395 3.42773C451.081 3.40332 454.206 4.79492 456.184 7.13867H468V0.742188H471.076V26.3281H468V19.834H456.232C454.255 22.2021 451.105 23.6182 447.395 23.5938C440.949 23.6426 436.262 19.4922 436.311 13.5352C436.262 7.5293 440.949 3.37891 447.395 3.42773ZM447.395 6.06445C442.658 6.06445 439.24 9.23828 439.24 13.5352C439.24 17.7832 442.658 20.957 447.395 20.9082C451.984 20.957 455.451 17.7832 455.451 13.5352C455.451 9.23828 451.984 6.06445 447.395 6.06445ZM456.916 27.3535C465.803 27.4023 471.223 30.3809 471.223 35.5078C471.223 40.6836 465.803 43.6621 456.916 43.6621C448.029 43.6621 442.609 40.6836 442.658 35.5078C442.609 30.3809 448.029 27.4023 456.916 27.3535ZM456.916 29.8438C450.031 29.8438 445.637 32.041 445.637 35.5078C445.637 38.9746 450.031 41.1719 456.916 41.1719C463.801 41.1719 468.244 38.9746 468.244 35.5078C468.244 32.041 463.801 29.8438 456.916 29.8438ZM457.697 9.72656C458.161 10.874 458.43 12.168 458.43 13.5352C458.43 14.8779 458.186 16.123 457.746 17.2461H468V9.72656H457.697ZM512.836 0.742188V11.9727H519.477V14.6094H512.836V25.6934H509.76V0.742188H512.836ZM488.91 27.6465V32.6758H509.76V27.6465H512.836V43.1738H485.883V27.6465H488.91ZM488.91 40.6348H509.76V35.166H488.91V40.6348ZM505.121 5.42969V7.96875H479.438V5.42969H490.766V0.302734H493.793V5.42969H505.121ZM492.279 10.2637C498.432 10.2637 502.533 13.1934 502.533 17.7832C502.533 22.373 498.432 25.3516 492.279 25.3027C486.029 25.3516 481.977 22.373 481.977 17.7832C481.977 13.1934 486.029 10.2637 492.279 10.2637ZM492.279 12.7051C487.836 12.6562 484.857 14.7559 484.906 17.7832C484.857 20.8105 487.836 22.9102 492.279 22.9102C496.674 22.9102 499.604 20.8105 499.652 17.7832C499.604 14.7559 496.674 12.6562 492.279 12.7051ZM558.258 0.742188V43.8086H555.23V0.742188H558.258ZM528.961 4.99023V29.7949H529.352C536.09 29.7949 542.877 29.2578 550.299 27.6953L550.738 30.3809C543.072 31.9922 536.334 32.5293 529.352 32.5293H525.934V4.99023H528.961ZM599.871 0.742188V18.125H607.293V20.7129H599.871V43.8574H596.795V0.742188H599.871ZM571.99 30.2832C580.193 30.2832 585.76 29.9902 592.303 28.7695L592.742 31.4551C585.955 32.6758 580.34 32.9688 571.99 32.9688H568.67V4.99023H588.738V7.57812H571.746V30.2832H571.99Z" fill="black"/>
</svg>
