<svg width="108" height="41" viewBox="0 0 108 41" fill="none" xmlns="http://www.w3.org/2000/svg">
<path d="M46.1959 40.0767C45.9699 40.2052 45.6341 40.3627 45.2105 40.4591C43.6853 40.7998 42.4049 40.006 42.0252 39.7714C41.6486 39.5368 40.8421 38.9711 40.0701 37.6535C39.226 36.217 39.2762 35.3428 39.1758 28.0798C39.1601 27.0064 39.1444 25.753 39.9383 25.1617C40.4028 24.8178 41.1277 24.7118 41.7271 24.9528C42.2135 25.1488 42.543 25.5377 42.8066 26.0198C43.4814 27.2506 43.3715 28.4365 43.3276 31.9684C43.3056 33.7392 43.3182 34.5972 43.905 35.3235C44.2596 35.7606 44.9626 36.3294 45.041 36.3905C45.9291 37.1007 46.2367 37.0815 46.5317 37.6117C46.6321 37.7885 46.9742 38.4666 46.7733 39.2315C46.7231 39.4275 46.6478 39.585 46.5882 39.6878" fill="#10C7F9"/>
<path d="M58.9477 36.9893C58.7349 36.9893 58.5319 37.0275 58.342 37.0912C58.4631 36.6803 58.5319 36.2471 58.5319 35.798C58.5319 33.2084 56.3741 31.1094 53.712 31.1094C51.0499 31.1094 48.8921 33.2084 48.8921 35.798C48.8921 38.3876 51.0499 40.4867 53.712 40.4867C55.0578 40.4867 56.2758 39.9484 57.1501 39.082C57.304 39.9133 58.0473 40.544 58.9445 40.544C59.953 40.544 60.7716 39.7477 60.7716 38.7666C60.7716 37.7856 59.953 36.9893 58.9445 36.9893H58.9477ZM56.5738 36.4924C56.5378 37.0434 56.2169 37.4734 56.1579 37.5435C55.4441 38.4226 53.8528 38.4577 53.6989 38.4577V38.4481C53.2208 38.4417 52.0191 38.3494 51.3904 37.6454C51.3282 37.5754 50.9844 37.1613 50.9222 36.6134C50.9026 36.4382 50.9222 36.314 51.0106 36.2248C51.1449 36.0879 51.397 36.0528 51.5738 36.1388C51.8128 36.2503 51.7212 36.4956 51.9962 36.8587C52.2025 37.1294 52.4579 37.2664 52.5692 37.3237C52.8345 37.4607 53.0669 37.4989 53.1815 37.518C53.4042 37.5531 53.5908 37.5467 53.7382 37.5308C53.7382 37.5308 53.7382 37.5308 53.7415 37.5308C53.7644 37.5308 53.7906 37.5276 53.8102 37.5244V37.5371C53.9576 37.5467 54.1442 37.5435 54.3636 37.4989C54.4782 37.4766 54.7074 37.4257 54.9661 37.276C55.0741 37.2122 55.323 37.0657 55.5129 36.7854C55.7716 36.4096 55.6668 36.1675 55.8993 36.0465C56.0728 35.9541 56.3249 35.9764 56.4657 36.107C56.5607 36.193 56.5836 36.3172 56.5705 36.4924H56.5738Z" fill="#10C7F9"/>
<path d="M50.8114 31.6371C51.1421 31.4715 51.0046 31.1275 51.3811 30.6083C51.6627 30.2197 52.0163 30.0222 52.1702 29.9362C52.537 29.7356 52.8644 29.6719 53.0248 29.6432C53.3359 29.5859 53.6011 29.5891 53.8041 29.605V29.6209C53.8336 29.6177 53.8696 29.6145 53.9024 29.6113C53.9024 29.6113 53.9057 29.6113 53.9089 29.6113C54.1119 29.5954 54.3804 29.5922 54.6882 29.6464C54.852 29.6751 55.1761 29.7388 55.5428 29.9394C55.6967 30.0222 56.0504 30.2229 56.332 30.6115C56.7085 31.1307 56.571 31.4747 56.9017 31.6403C57.1473 31.7646 57.5042 31.7231 57.6974 31.5384C57.8284 31.4142 57.8546 31.2422 57.8349 30.9937C57.7662 30.2197 57.2979 29.6273 57.2128 29.5253C56.3516 28.5156 54.662 28.35 53.9908 28.3213V28.3086C53.7714 28.3086 51.535 28.3022 50.5003 29.5158C50.4152 29.6145 49.9469 30.2102 49.8782 30.9842C49.8552 31.2326 49.8847 31.4046 50.0157 31.5288C50.2121 31.7136 50.5658 31.755 50.8114 31.6308V31.6371Z" fill="#10C7F9"/>
<path d="M72.6709 29.8768C71.7574 29.4627 70.6703 29.845 70.2446 30.7336C70.0972 31.0394 70.0514 31.3675 70.0874 31.6796C69.8058 31.4662 69.498 31.2751 69.1575 31.1222C68.0573 30.6222 66.8654 30.5648 65.7849 30.8706C65.834 27.9466 65.8798 26.854 65.2282 25.7265C64.9532 25.2487 64.6094 24.8601 64.1019 24.669C63.4765 24.4333 62.7233 24.5352 62.2355 24.876C61.4038 25.4621 61.4234 26.7043 61.4398 27.7682C61.5413 34.9668 61.4922 35.83 62.373 37.257C63.1785 38.5629 64.02 39.1235 64.4129 39.356C64.8058 39.5885 66.1418 40.3753 67.7364 40.0377C67.779 40.0281 67.8183 40.0154 67.8608 40.0058C69.3933 39.7733 70.7816 38.8273 71.4889 37.3557C72.1536 35.9733 72.0586 34.4412 71.3808 33.1894C72.2354 33.4379 73.1719 33.0493 73.5583 32.2402C73.9839 31.3516 73.591 30.2941 72.6775 29.88L72.6709 29.8768ZM69.868 35.8873C69.832 36.4384 69.5111 36.8684 69.4522 36.9384C68.7384 37.8176 67.147 37.8526 66.9931 37.8526V37.843C66.5151 37.8367 65.3134 37.7443 64.6847 37.0404C64.6225 36.9703 64.2787 36.5562 64.2165 36.0084C64.1968 35.8332 64.2165 35.7089 64.3049 35.6198C64.4391 35.4828 64.6912 35.4478 64.8681 35.5338C65.1038 35.6452 65.0154 35.8905 65.2905 36.2536C65.4967 36.5244 65.7521 36.6613 65.8635 36.7187C66.1287 36.8556 66.3612 36.8938 66.4758 36.913C66.6984 36.948 66.8851 36.9416 67.0324 36.9257C67.0324 36.9257 67.0324 36.9257 67.0357 36.9257C67.0586 36.9257 67.0848 36.9225 67.1045 36.9193V36.9321C67.2518 36.9416 67.4385 36.9384 67.6578 36.8938C67.7724 36.8716 68.0016 36.8206 68.2603 36.6709C68.3684 36.6072 68.6172 36.4607 68.8071 36.1804C69.0658 35.8045 68.961 35.5624 69.1935 35.4414C69.3671 35.349 69.6192 35.3713 69.76 35.5019C69.855 35.5879 69.8779 35.7121 69.8648 35.8873H69.868Z" fill="#10C7F9"/>
<path d="M78.1395 36.4326C77.2259 36.0185 76.1388 36.4008 75.7132 37.2894C75.2875 38.1781 75.6804 39.2356 76.594 39.6497C77.5075 40.0638 78.5946 39.6815 79.0203 38.7929C79.446 37.9042 79.053 36.8467 78.1395 36.4326Z" fill="#10C7F9"/>
<path d="M29.6992 33.2675C29.6443 33.0265 29.505 32.4242 29.1019 31.9582C28.7768 31.5809 28.4412 31.4763 28.2745 31.4414C23.1455 31.4541 18.0166 31.4699 12.8876 31.4826C9.10312 31.4731 5.31866 31.4636 1.53209 31.4509C1.36534 31.4858 1.02974 31.5904 0.704698 31.9677C0.301556 32.4337 0.162251 33.036 0.107373 33.277C-0.126913 34.3295 0.0271682 35.6229 0.521069 36.3806C1.04241 37.1827 1.82969 37.2049 2.17374 37.2081C7.35758 37.2524 13.6791 37.2271 16.1929 37.2144C19.2724 37.2239 23.7661 37.2303 27.6307 37.1986C27.9748 37.1986 28.7621 37.1732 29.2834 36.3711C29.7773 35.6134 29.9314 34.32 29.6971 33.2675H29.6992Z" fill="#10C7F9"/>
<path d="M65.324 33.9613C65.1124 33.8639 64.8591 33.9532 64.7588 34.1615C64.6586 34.3671 64.7505 34.6133 64.9649 34.7106C65.1765 34.808 65.4298 34.7188 65.5301 34.5105C65.6303 34.3049 65.5384 34.0587 65.324 33.9613Z" fill="#10C7F9"/>
<path d="M107.203 33.2675C107.154 33.0265 107.031 32.4242 106.674 31.9582C106.386 31.5809 106.089 31.4763 105.941 31.4414C101.398 31.4541 96.8555 31.4699 92.3127 31.4826C88.9607 31.4731 85.6088 31.4636 82.2549 31.4509C82.1073 31.4858 81.81 31.5904 81.5221 31.9677C81.165 32.4337 81.0417 33.036 80.9931 33.277C80.7855 34.3295 80.922 35.6229 81.3595 36.3806C81.8212 37.1827 82.5185 37.2049 82.8233 37.2081C87.4147 37.2524 93.0137 37.2271 95.2403 37.2144C97.9678 37.2239 101.948 37.2303 105.371 37.1986C105.676 37.1986 106.373 37.1732 106.835 36.3711C107.272 35.6134 107.409 34.32 107.201 33.2675H107.203Z" fill="#10C7F9"/>
<path d="M54.1169 5.22458C53.9976 4.53332 53.7377 3.84963 53.3127 3.20125C51.3774 0.239423 46.8982 -0.865587 43.3088 0.73138C39.7194 2.32835 38.3802 6.02433 40.3156 8.98616C41.8687 11.3627 45.0607 12.5409 48.1182 12.0893C48.0968 12.9092 48.0662 13.6963 48.0631 14.4608C48.057 14.5112 48.0509 14.5591 48.0478 14.5995C48.0081 15.7827 47.9683 16.9659 47.9317 18.1492C47.9133 18.2047 47.7207 18.7748 46.9655 18.9842C46.9196 18.9968 46.8738 19.0019 46.831 19.012C46.831 19.0044 46.831 18.9994 46.831 18.9943C46.672 19.0221 46.3081 19.065 45.9076 18.954C45.1524 18.7446 44.9598 18.1744 44.9415 18.1189C44.9017 16.9357 44.862 15.7525 44.8253 14.5692C44.8192 14.38 44.7641 14.0748 44.492 13.7846C43.8714 13.1312 42.6453 13.111 42.1959 13.1035C41.7862 13.0959 40.4868 13.0757 39.857 13.7165C39.6338 13.9436 39.5634 14.1807 39.542 14.3422C39.4962 14.6298 39.4258 15.0713 39.3555 15.6087C39.276 16.2141 39.2057 16.8751 39.1874 17.1375C39.1537 17.632 39.007 19.8344 41.0065 21.4995C41.3857 21.8149 42.04 22.2766 43.0978 22.6777C43.3608 22.7736 43.6757 22.8719 44.0456 22.9527C44.7213 23.1015 45.3267 23.1343 45.7792 23.1343L46.088 23.1192L47.097 23.1671C47.5464 23.1671 48.1518 23.1343 48.8305 22.9855C49.1974 22.9047 49.5154 22.8064 49.7783 22.7105C50.8362 22.3119 51.4936 21.8477 51.8696 21.5323C52.5392 20.9748 52.9642 20.3567 53.2394 19.7613C53.9946 18.9489 54.0649 17.6572 54.126 16.5244C54.5296 8.97859 54.71 6.7938 54.126 5.22458H54.1169ZM51.7473 6.45069C51.6648 7.24034 51.1022 7.84835 50.9983 7.94927C49.7508 9.19051 47.0572 9.18546 46.7943 9.18294V9.17033C45.9871 9.1451 43.9509 8.97354 42.9144 7.9417C42.8104 7.84078 42.2479 7.23277 42.1653 6.44312C42.1378 6.19084 42.1714 6.01424 42.3304 5.88809C42.5658 5.69888 42.9939 5.65599 43.2905 5.78213C43.6879 5.95117 43.5228 6.30184 43.9784 6.83416C44.3178 7.23025 44.7427 7.4346 44.9262 7.52038C45.3695 7.72726 45.7609 7.79033 45.9565 7.8206C46.3296 7.87862 46.6506 7.8761 46.8952 7.85844H46.9013C46.941 7.85592 46.9838 7.8534 47.0205 7.85087V7.86853C47.2682 7.88619 47.5892 7.88872 47.9592 7.83069C48.1548 7.80042 48.5462 7.73735 48.9895 7.53047C49.173 7.4447 49.601 7.24034 49.9373 6.84426C50.3929 6.31193 50.2278 5.96378 50.6253 5.79222C50.9218 5.66608 51.3499 5.70645 51.5853 5.89819C51.7412 6.02433 51.7749 6.20093 51.7504 6.45321L51.7473 6.45069Z" fill="#10C7F9"/>
<path d="M71.4625 3.69433C69.4539 0.277235 64.8069 -0.999267 61.0801 0.843946C57.3563 2.68716 55.9653 6.95152 57.9739 10.3714C59.9825 13.7885 64.6295 15.065 68.3563 13.2218C72.0801 11.3786 73.4712 7.11424 71.4625 3.69433ZM69.8361 7.44528C69.7505 8.35707 69.1665 9.05845 69.0595 9.17628C67.7663 10.6071 64.9689 10.6043 64.6968 10.6015V10.5874C63.8591 10.5566 61.7465 10.3602 60.6704 9.16786C60.5634 9.05003 59.9794 8.34866 59.8938 7.43687C59.8663 7.1451 59.903 6.94029 60.065 6.79441C60.3096 6.57558 60.7529 6.52789 61.0617 6.67377C61.4745 6.87016 61.3032 7.27415 61.7741 7.88575C62.1256 8.34304 62.5689 8.57871 62.7585 8.6769C63.2171 8.91537 63.6237 8.98831 63.8285 9.02197C64.2168 9.08931 64.5501 9.0865 64.8038 9.06686H64.8099C64.8527 9.06406 64.8955 9.06125 64.9322 9.05564V9.07528C65.189 9.09492 65.5223 9.09772 65.9075 9.03039C66.1093 8.99672 66.5159 8.92378 66.9775 8.68532C67.1671 8.58712 67.6104 8.35146 67.962 7.89417C68.4328 7.27976 68.2616 6.87577 68.6743 6.68219C68.9831 6.5363 69.4264 6.584 69.671 6.80282C69.833 6.94871 69.8697 7.15351 69.8422 7.44528H69.8361Z" fill="#10C7F9"/>
</svg>
