<svg width="204" height="311" viewBox="0 0 204 311" fill="none" xmlns="http://www.w3.org/2000/svg">
<g clip-path="url(#clip0_889_6505)">
<path d="M97.4692 217.742C90.7787 217.742 84.2082 214.465 80.2609 208.435C74.0214 198.904 76.6488 186.046 86.1197 179.763C95.5907 173.484 108.372 176.132 114.611 185.659C120.851 195.19 118.223 208.052 108.752 214.331C105.273 216.638 101.35 217.738 97.4692 217.738V217.742ZM97.4154 182.478C94.6804 182.478 91.9206 183.256 89.4712 184.876C82.8055 189.298 80.9519 198.35 85.346 205.063C89.7401 211.775 98.7394 213.636 105.405 209.218C112.071 204.796 113.924 195.74 109.53 189.032C106.75 184.784 102.124 182.482 97.4154 182.482V182.478Z" fill="#C7E8FA"/>
<g opacity="0.6">
<path d="M108.193 192.033C108.786 189.596 106.006 186.816 101.982 185.824C97.9578 184.832 94.2148 186.002 93.6213 188.439C93.0279 190.876 95.8089 193.656 99.8327 194.648C103.857 195.641 107.6 194.47 108.193 192.033Z" fill="white"/>
</g>
<g opacity="0.6">
<path d="M88.3173 190.285C88.942 191.243 90.2205 191.505 91.1722 190.877C92.1238 190.248 92.3845 188.961 91.7597 188.003C91.135 187.046 89.8564 186.783 88.9048 187.412C87.9531 188.041 87.6925 189.328 88.3173 190.285Z" fill="white"/>
</g>
<path d="M45.5669 199.417C38.715 199.417 31.9956 196.065 27.9531 189.894C21.5647 180.138 24.2583 166.972 33.9526 160.543C43.647 154.118 56.7301 156.828 63.1185 166.58C69.5028 176.336 66.8134 189.502 57.119 195.932C53.5607 198.288 49.5431 199.417 45.5669 199.417ZM45.5131 163.178C42.6871 163.178 39.8322 163.978 37.3041 165.656C30.4109 170.228 28.4993 179.584 33.0382 186.521C37.5772 193.454 46.8743 195.382 53.7717 190.814C60.6608 186.242 62.5724 176.886 58.0376 169.949C55.1619 165.56 50.383 163.178 45.5172 163.178H45.5131Z" fill="#C7E8FA"/>
<g opacity="0.6">
<path d="M55.7722 173.158C56.3656 170.721 53.5846 167.941 49.5608 166.949C45.5369 165.957 41.7939 167.127 41.2004 169.564C40.607 172.001 43.388 174.781 47.4118 175.773C51.4357 176.766 55.1788 175.595 55.7722 173.158Z" fill="white"/>
</g>
<g opacity="0.6">
<path d="M35.8973 171.414C36.5221 172.372 37.8006 172.634 38.7523 172.005C39.7039 171.377 39.9646 170.09 39.3398 169.132C38.715 168.175 37.4365 167.912 36.4849 168.541C35.5332 169.17 35.2726 170.456 35.8973 171.414Z" fill="white"/>
</g>
<path d="M35.3518 148.115C30.8625 148.115 26.456 145.92 23.8079 141.873C21.7805 138.775 21.073 135.069 21.8136 131.438C22.5542 127.803 24.6603 124.68 27.7386 122.64C34.0898 118.426 42.6671 120.204 46.8502 126.596C51.0333 132.991 49.2707 141.619 42.9195 145.829C40.5859 147.378 37.9544 148.115 35.3518 148.115ZM35.3146 126.475C33.8581 126.475 32.3893 126.887 31.086 127.753C29.3647 128.894 28.1896 130.639 27.7759 132.671C27.3621 134.703 27.7552 136.772 28.8889 138.5C31.2266 142.073 36.018 143.068 39.568 140.711C43.1181 138.359 44.1028 133.537 41.7651 129.964C40.2838 127.703 37.822 126.475 35.3146 126.475Z" fill="#C7E8FA"/>
<g opacity="0.6">
<path d="M33.1999 132.642C34.2301 134.212 36.3279 134.649 37.8878 133.612C39.4476 132.575 39.8821 130.464 38.8518 128.894C37.8216 127.325 35.7238 126.887 34.1639 127.924C32.6041 128.961 32.1696 131.072 33.1999 132.642Z" fill="white"/>
</g>
<path d="M72.5687 150.078C71.7992 150.078 71.0254 149.999 70.2558 149.837C67.2809 149.221 64.7197 147.476 63.0481 144.924C59.5974 139.652 61.0497 132.536 66.2879 129.063C68.8242 127.381 71.8612 126.79 74.8361 127.41C77.8111 128.026 80.3722 129.771 82.0438 132.324C85.4946 137.595 84.0423 144.711 78.8041 148.184C76.9256 149.429 74.7699 150.078 72.5687 150.078ZM72.5315 133.302C71.5095 133.302 70.5082 133.602 69.6352 134.181C68.456 134.964 67.6491 136.163 67.3637 137.554C67.0782 138.944 67.3512 140.364 68.1291 141.551C68.907 142.738 70.0945 143.55 71.4806 143.837C72.8625 144.12 74.2734 143.849 75.4526 143.066C76.6319 142.284 77.4387 141.084 77.7242 139.694C78.0097 138.303 77.7366 136.883 76.9587 135.696C76.1809 134.51 74.9934 133.698 73.6073 133.41C73.2514 133.335 72.8873 133.302 72.5315 133.302Z" fill="#C7E8FA"/>
<g opacity="0.6">
<path d="M71.3194 137.849C71.9856 138.865 73.3427 139.149 74.3523 138.478C75.3619 137.808 75.6432 136.442 74.9771 135.426C74.3109 134.41 72.9538 134.127 71.9442 134.797C70.9346 135.468 70.6533 136.833 71.3194 137.849Z" fill="white"/>
</g>
<path d="M57.3429 22.2476C52.3695 22.2476 47.843 18.8416 46.6059 13.7699C45.9025 10.8844 46.3576 7.89885 47.8885 5.35887C49.4194 2.81889 51.8399 1.02842 54.7073 0.320557C60.6282 -1.13264 66.6235 2.52326 68.0717 8.47763C68.7751 11.3632 68.3199 14.3529 66.789 16.8929C65.2581 19.4328 62.8376 21.2233 59.9703 21.9312C59.089 22.1477 58.2077 22.2518 57.3388 22.2518L57.3429 22.2476ZM57.3388 4.08472C56.7885 4.08472 56.2299 4.15134 55.6755 4.28875C53.8632 4.73429 52.3281 5.86687 51.3599 7.47413C50.3917 9.08139 50.1021 10.9718 50.549 12.7998C51.4675 16.5681 55.2617 18.8874 59.0062 17.9588C60.8185 17.5133 62.3535 16.3807 63.3217 14.7734C64.2899 13.1662 64.5796 11.2758 64.1327 9.44782C63.3507 6.23745 60.4833 4.08472 57.3388 4.08472Z" fill="#C7E8FA"/>
<g opacity="0.6">
<path d="M55.5803 10.5213C55.9485 12.0328 57.467 12.9572 58.9689 12.5866C60.4709 12.216 61.3894 10.6878 61.0212 9.17633C60.6529 7.66484 59.1344 6.74046 57.6325 7.11104C56.1305 7.48163 55.212 9.00978 55.5803 10.5213Z" fill="white"/>
</g>
<path d="M68.2414 66.0397C66.4333 66.0397 64.6541 65.5442 63.0653 64.574C60.7772 63.1791 59.1635 60.9681 58.5263 58.349C57.8892 55.7341 58.3029 53.0234 59.689 50.7207C61.0751 48.4181 63.2722 46.7984 65.8706 46.1529C71.2329 44.8455 76.6738 48.1475 77.9896 53.548C78.6268 56.163 78.213 58.8736 76.8269 61.1763C75.4408 63.4789 73.2438 65.0987 70.6412 65.7441C69.8427 65.9398 69.0358 66.0356 68.2373 66.0356L68.2414 66.0397ZM62.4695 57.3788C62.8501 58.9361 63.8059 60.2519 65.1713 61.0805C66.5326 61.9133 68.138 62.159 69.6813 61.7759C71.2288 61.3928 72.5362 60.4268 73.3596 59.0569C74.1871 57.6869 74.4313 56.0755 74.0506 54.5182C73.2686 51.3078 70.033 49.3258 66.8388 50.1211C65.2913 50.5001 63.988 51.4661 63.1605 52.836C62.3329 54.2059 62.0888 55.8173 62.4695 57.3746V57.3788Z" fill="#C7E8FA"/>
<g opacity="0.6">
<path d="M66.0693 53.5679C66.2761 54.4132 67.1244 54.9295 67.9601 54.7213C68.8001 54.5131 69.3131 53.6595 69.1063 52.8184C68.8994 51.9773 68.0512 51.4568 67.2154 51.665C66.3754 51.8732 65.8624 52.7268 66.0693 53.5679Z" fill="white"/>
</g>
<path d="M68.353 238.001C65.2374 238.001 62.1798 236.477 60.3427 233.67C57.4381 229.232 58.6628 223.244 63.0735 220.321C65.2085 218.905 67.7655 218.414 70.2688 218.93C72.772 219.451 74.9277 220.921 76.3345 223.065C79.2391 227.504 78.0143 233.491 73.6078 236.415C71.99 237.489 70.1612 238.001 68.353 238.001ZM63.7314 231.422C65.4071 233.974 68.833 234.686 71.3735 233C73.914 231.318 74.6174 227.866 72.9458 225.309C72.1348 224.073 70.8935 223.223 69.4536 222.923C68.0096 222.624 66.5366 222.911 65.3078 223.727C62.7673 225.409 62.0639 228.861 63.7355 231.418L63.7314 231.422Z" fill="#C7E8FA"/>
<g opacity="0.6">
<path d="M65.6144 227.666C66.4005 228.869 68.0059 229.198 69.2017 228.407C70.3975 227.616 70.7243 226 69.9382 224.797C69.152 223.593 67.5467 223.264 66.3509 224.056C65.1551 224.847 64.8283 226.462 65.6144 227.666Z" fill="white"/>
</g>
<path d="M8.77622 179.697C8.18454 179.697 7.58873 179.634 6.99292 179.513C4.70069 179.039 2.72706 177.694 1.44027 175.728C-1.21607 171.669 -0.0989165 166.189 3.93524 163.512C7.97353 160.834 13.4145 161.963 16.0749 166.027C17.3617 167.992 17.8127 170.349 17.341 172.656C16.8694 174.962 15.5329 176.949 13.58 178.243C12.1318 179.201 10.4726 179.701 8.77622 179.701V179.697ZM8.75553 168.179C8.25075 168.179 7.74182 168.325 7.29082 168.621C6.05782 169.437 5.71854 171.111 6.52951 172.347C6.92258 172.951 7.52253 173.359 8.22178 173.505C8.92517 173.655 9.63684 173.513 10.2327 173.118C10.8285 172.722 11.2381 172.114 11.3829 171.411C11.5277 170.707 11.3912 169.986 10.9981 169.387C10.485 168.604 9.62856 168.175 8.75967 168.175L8.75553 168.179Z" fill="#C7E8FA"/>
<g opacity="0.6">
<path d="M6.51688 170.439C7.16648 171.43 8.49051 171.705 9.47112 171.051C10.4559 170.398 10.7289 169.065 10.0793 168.078C9.42975 167.087 8.10572 166.813 7.12511 167.466C6.14036 168.12 5.86728 169.453 6.51688 170.439Z" fill="white"/>
</g>
</g>
<path d="M40.9648 255.531V265.949H40.0508V255.531H40.9648ZM32.4805 263.172C33.3711 263.166 34.3906 263.16 35.4453 263.125V261.988C34.1973 261.854 33.3828 261.145 33.3945 260.102C33.3828 258.93 34.3906 258.168 35.8906 258.168C37.3906 258.168 38.4102 258.93 38.4102 260.102C38.4102 261.133 37.6016 261.842 36.3711 261.977V263.09C37.3789 263.049 38.3984 262.973 39.3594 262.844L39.4297 263.547C37.1094 263.922 34.5547 263.957 32.6211 263.957L32.4805 263.172ZM39.0898 256.82V257.57H32.7031V256.82H35.4453V255.543H36.3711V256.82H39.0898ZM35.8906 258.883C34.9297 258.883 34.25 259.375 34.25 260.102C34.25 260.828 34.9297 261.297 35.8906 261.285C36.8633 261.297 37.5312 260.828 37.5312 260.102C37.5312 259.375 36.8633 258.883 35.8906 258.883ZM46.2852 258.332C46.2852 260.172 47.5039 262.059 48.9805 262.785L48.418 263.523C47.2695 262.92 46.3086 261.689 45.8516 260.242C45.3828 261.783 44.3984 263.096 43.2266 263.723L42.6406 262.984C44.1641 262.234 45.3711 260.23 45.3828 258.332V256.434H46.2852V258.332ZM50.8555 255.531V259.762H52.6016V260.559H50.8555V265.949H49.9414V255.531H50.8555ZM62.7031 263.828V264.59H53.1641V263.828H57.4297V261.273H58.332V263.828H62.7031ZM58.3555 257.043C58.3555 258.789 60.418 260.312 62.2344 260.629L61.8242 261.391C60.2363 261.068 58.5605 259.99 57.8867 258.484C57.2012 259.984 55.5371 261.068 53.9492 261.391L53.5391 260.629C55.3555 260.312 57.3945 258.789 57.3945 257.043V256.246H58.3555V257.043ZM72.4297 255.531V265.949H71.5273V260.5H70.0859V265.434H69.207V255.812H70.0859V259.738H71.5273V255.531H72.4297ZM68.0234 256.891C68.0117 259.539 67.0859 262.047 64.0859 263.711L63.5469 263.066C65.9668 261.719 66.9688 259.809 67.1211 257.652H63.9453V256.891H68.0234Z" fill="black"/>
<path d="M106.246 255.531V261.988H105.367V255.531H106.246ZM104.359 255.719V261.953H103.48V261.355H101.629V260.688H103.48V255.719H104.359ZM97.3633 259.586C98.8047 259.586 101.16 259.562 102.906 259.293L102.977 259.914C102.256 260.066 101.459 260.16 100.668 260.219V261.953H99.7773V260.266C98.9219 260.307 98.1133 260.312 97.4688 260.312L97.3633 259.586ZM100.129 262.363V263.348H105.332V262.363H106.246V265.809H99.2266V262.363H100.129ZM100.129 265.07H105.332V264.086H100.129V265.07ZM100.188 255.906C101.547 255.906 102.473 256.492 102.473 257.453C102.473 258.391 101.547 258.988 100.188 258.988C98.8281 258.988 97.9141 258.391 97.9141 257.453C97.9141 256.492 98.8281 255.906 100.188 255.906ZM100.188 256.574C99.3086 256.562 98.7578 256.902 98.7578 257.453C98.7578 257.992 99.3086 258.32 100.188 258.32C101.066 258.32 101.629 257.992 101.641 257.453C101.629 256.902 101.066 256.562 100.188 256.574ZM116.418 255.531V261.191H115.504V258.836H113.395V258.062H115.504V255.531H116.418ZM110.641 261.695V262.996H115.504V261.695H116.418V265.809H109.715V261.695H110.641ZM110.641 265.059H115.504V263.734H110.641V265.059ZM111.414 257.23C111.414 258.566 112.457 259.879 113.98 260.406L113.5 261.121C112.322 260.693 111.414 259.82 110.969 258.742C110.518 259.949 109.557 260.916 108.32 261.367L107.84 260.641C109.375 260.09 110.488 258.707 110.488 257.23V256.926H108.133V256.164H113.746V256.926H111.414V257.23ZM126.449 256.164V256.973C126.449 257.846 126.449 258.906 126.18 260.324H127.703V261.098H118.164V260.324H125.254C125.535 258.883 125.535 257.863 125.535 256.973V256.914H119.371V256.164H126.449ZM126.766 264.941V265.715H119.43V262.27H120.344V264.941H126.766ZM132.121 257.172C132.109 258.66 133.164 259.973 134.699 260.488L134.184 261.203C133.035 260.77 132.133 259.926 131.688 258.824C131.236 260.072 130.281 261.045 129.027 261.52L128.523 260.77C130.129 260.207 131.195 258.824 131.207 257.207V256.129H132.121V257.172ZM137.172 255.531V261.707H136.246V258.531H133.926V257.77H136.246V255.531H137.172ZM133.715 262.012C135.883 262.012 137.207 262.727 137.207 263.98C137.207 265.223 135.883 265.926 133.715 265.926C131.547 265.926 130.223 265.223 130.223 263.98C130.223 262.727 131.547 262.012 133.715 262.012ZM133.715 262.738C132.121 262.738 131.125 263.207 131.137 263.98C131.125 264.73 132.121 265.188 133.715 265.188C135.309 265.188 136.293 264.73 136.293 263.98C136.293 263.207 135.309 262.738 133.715 262.738Z" fill="black"/>
<path d="M38.7266 300.164C38.3633 299.074 37.5312 298.383 36.3242 298.383C34.8242 298.383 33.6289 299.566 33.6289 301.758C33.6289 303.949 34.8242 305.133 36.3945 305.133C37.8301 305.133 38.8086 304.172 38.832 302.672H36.6172V301.746H39.8633V302.66C39.8633 304.77 38.4102 306.117 36.3945 306.117C34.1328 306.117 32.6094 304.441 32.6094 301.758C32.6094 299.074 34.1445 297.398 36.3242 297.398C38.1172 297.398 39.5 298.523 39.8164 300.164H38.7266ZM48.6172 301.758C48.6172 304.441 47.0352 306.117 44.8672 306.117C42.6875 306.117 41.1172 304.441 41.1172 301.758C41.1172 299.074 42.6875 297.398 44.8672 297.398C47.0352 297.398 48.6172 299.074 48.6172 301.758ZM47.5977 301.758C47.5977 299.566 46.4023 298.383 44.8672 298.383C43.332 298.383 42.1367 299.566 42.1367 301.758C42.1367 303.949 43.332 305.133 44.8672 305.133C46.4023 305.133 47.5977 303.949 47.5977 301.758ZM53.1758 306V297.516H54.2305V305.062H58.168V306H53.1758ZM60.4648 306H59.3633L62.4688 297.516H63.582L66.6875 306H65.5742L64.7305 303.609H61.3203L60.4648 306ZM61.6367 302.684H64.4023L63.0547 298.887H62.9844L61.6367 302.684ZM67.8359 306V297.516H70.8125C72.5938 297.516 73.4258 298.512 73.4258 299.766C73.4258 300.855 72.7812 301.348 72.043 301.547V301.629C72.8281 301.676 73.7656 302.402 73.7656 303.75C73.7656 305.027 72.9219 306 70.918 306H67.8359ZM70.9062 305.062C72.2305 305.062 72.7461 304.477 72.7461 303.738C72.7461 302.871 72.0547 302.145 70.9648 302.145H68.8906V305.062H70.9062ZM70.7773 301.23C71.6914 301.23 72.418 300.668 72.418 299.777C72.418 299.039 71.9258 298.453 70.8125 298.453H68.8906V301.23H70.7773ZM80.75 306.129C78.9453 306.129 77.8438 304.758 77.8438 302.848C77.8438 300.914 78.9922 299.555 80.7266 299.555C82.0859 299.555 83.0938 300.352 83.2578 301.559H82.25C82.1094 300.973 81.5938 300.445 80.75 300.445C79.6133 300.445 78.8516 301.383 78.8516 302.812C78.8516 304.289 79.5898 305.227 80.75 305.227C81.5 305.227 82.0742 304.828 82.25 304.125H83.2578C83.0938 305.262 82.168 306.129 80.75 306.129ZM87.1016 306.129C85.3672 306.129 84.1953 304.828 84.1953 302.848C84.1953 300.867 85.3672 299.555 87.1016 299.555C88.8242 299.555 89.9844 300.867 89.9844 302.848C89.9844 304.828 88.8242 306.129 87.1016 306.129ZM87.1016 305.238C88.3789 305.238 88.9766 304.113 88.9766 302.848C88.9766 301.582 88.3789 300.445 87.1016 300.445C85.8008 300.445 85.2031 301.582 85.2031 302.848C85.2031 304.113 85.8008 305.238 87.1016 305.238ZM91.3086 306V299.637H92.2812V300.609H92.3516C92.5859 299.965 93.2422 299.531 93.9922 299.531C94.1445 299.531 94.4023 299.543 94.5195 299.555V300.574C94.4492 300.551 94.168 300.504 93.9102 300.504C92.9961 300.504 92.3164 301.137 92.3164 301.992V306H91.3086ZM95.5039 308.391V299.637H96.4766V300.645H96.5938C96.8047 300.305 97.2031 299.555 98.4336 299.555C100.027 299.555 101.141 300.82 101.141 302.836C101.141 304.852 100.027 306.129 98.4453 306.129C97.2266 306.129 96.8047 305.379 96.5938 305.027H96.5117V308.391H95.5039ZM96.4883 302.812C96.4883 304.242 97.1328 305.227 98.3047 305.227C99.5117 305.227 100.133 304.172 100.133 302.812C100.133 301.488 99.5234 300.457 98.3047 300.457C97.1094 300.457 96.4883 301.406 96.4883 302.812ZM105.055 306.129C103.32 306.129 102.148 304.828 102.148 302.848C102.148 300.867 103.32 299.555 105.055 299.555C106.777 299.555 107.938 300.867 107.938 302.848C107.938 304.828 106.777 306.129 105.055 306.129ZM105.055 305.238C106.332 305.238 106.93 304.113 106.93 302.848C106.93 301.582 106.332 300.445 105.055 300.445C103.754 300.445 103.156 301.582 103.156 302.848C103.156 304.113 103.754 305.238 105.055 305.238ZM109.262 306V299.637H110.234V300.609H110.305C110.539 299.965 111.195 299.531 111.945 299.531C112.098 299.531 112.355 299.543 112.473 299.555V300.574C112.402 300.551 112.121 300.504 111.863 300.504C110.949 300.504 110.27 301.137 110.27 301.992V306H109.262ZM113.141 304.195C113.141 302.73 114.43 302.402 115.531 302.32C115.936 302.291 116.967 302.238 117.254 302.227V301.711C117.254 300.902 116.773 300.434 115.812 300.434C115.004 300.434 114.523 300.809 114.383 301.289H113.328C113.457 300.27 114.453 299.555 115.859 299.555C116.691 299.555 118.25 299.801 118.25 301.805V306H117.254V305.133H117.207C116.996 305.566 116.41 306.152 115.309 306.152C114.102 306.152 113.141 305.438 113.141 304.195ZM114.148 304.242C114.148 304.91 114.711 305.25 115.484 305.25C116.621 305.25 117.254 304.488 117.254 303.691V303.047L115.648 303.164C114.734 303.223 114.148 303.551 114.148 304.242ZM122.645 299.637V300.48H121.309V304.172C121.309 304.992 121.707 305.121 122.141 305.121C122.328 305.121 122.586 305.109 122.738 305.098V306.035C122.586 306.059 122.328 306.082 122.035 306.082C121.191 306.082 120.289 305.555 120.289 304.43V300.48H119.328V299.637H120.289V298.113H121.309V299.637H122.645ZM123.945 306V299.637H124.953V306H123.945ZM124.449 298.582C124.062 298.582 123.746 298.289 123.746 297.914C123.746 297.539 124.062 297.246 124.449 297.246C124.836 297.246 125.164 297.539 125.164 297.914C125.164 298.289 124.836 298.582 124.449 298.582ZM129.16 306.129C127.426 306.129 126.254 304.828 126.254 302.848C126.254 300.867 127.426 299.555 129.16 299.555C130.883 299.555 132.043 300.867 132.043 302.848C132.043 304.828 130.883 306.129 129.16 306.129ZM129.16 305.238C130.438 305.238 131.035 304.113 131.035 302.848C131.035 301.582 130.438 300.445 129.16 300.445C127.859 300.445 127.262 301.582 127.262 302.848C127.262 304.113 127.859 305.238 129.16 305.238ZM134.375 302.18V306H133.367V299.637H134.34V300.633H134.422C134.727 299.988 135.312 299.555 136.285 299.555C137.574 299.555 138.43 300.34 138.43 301.957V306H137.422V302.027C137.422 301.043 136.883 300.457 135.98 300.457C135.055 300.457 134.375 301.078 134.375 302.18ZM143.047 306L143.035 305.227L145.93 302.18C146.938 301.113 147.418 300.539 147.418 299.754C147.418 298.887 146.68 298.312 145.73 298.312C144.723 298.312 144.078 298.957 144.078 299.906H143.082C143.07 298.406 144.23 297.398 145.766 297.398C147.301 297.398 148.402 298.43 148.402 299.754C148.402 300.703 147.957 301.441 146.457 302.988L144.512 304.992V305.062H148.555V306H143.047ZM152.867 306.117C150.98 306.117 149.902 304.535 149.902 301.758C149.902 299.004 151.004 297.398 152.867 297.398C154.73 297.398 155.832 299.004 155.832 301.758C155.832 304.535 154.742 306.117 152.867 306.117ZM152.867 305.18C154.086 305.18 154.801 303.949 154.801 301.758C154.801 299.566 154.086 298.312 152.867 298.312C151.648 298.312 150.922 299.566 150.922 301.758C150.922 303.949 151.637 305.18 152.867 305.18ZM157.238 306L157.227 305.227L160.121 302.18C161.129 301.113 161.609 300.539 161.609 299.754C161.609 298.887 160.871 298.312 159.922 298.312C158.914 298.312 158.27 298.957 158.27 299.906H157.273C157.262 298.406 158.422 297.398 159.957 297.398C161.492 297.398 162.594 298.43 162.594 299.754C162.594 300.703 162.148 301.441 160.648 302.988L158.703 304.992V305.062H162.746V306H157.238ZM163.883 304.266V303.398L167.703 297.516H169.004V303.34H170.188V304.266H169.004V306H167.996V304.266H163.883ZM165.02 303.34H167.996V298.852H167.891L165.02 303.27V303.34ZM174.359 306.117C172.473 306.117 171.395 304.535 171.395 301.758C171.395 299.004 172.496 297.398 174.359 297.398C176.223 297.398 177.324 299.004 177.324 301.758C177.324 304.535 176.234 306.117 174.359 306.117ZM174.359 305.18C175.578 305.18 176.293 303.949 176.293 301.758C176.293 299.566 175.578 298.312 174.359 298.312C173.141 298.312 172.414 299.566 172.414 301.758C172.414 303.949 173.129 305.18 174.359 305.18ZM181.566 306.117C179.785 306.117 178.543 305.133 178.555 303.75C178.543 302.648 179.305 301.746 180.277 301.594V301.547C179.434 301.348 178.883 300.574 178.883 299.648C178.883 298.348 180.02 297.398 181.566 297.398C183.113 297.398 184.25 298.348 184.262 299.648C184.25 300.574 183.688 301.348 182.855 301.547V301.594C183.816 301.746 184.578 302.648 184.59 303.75C184.578 305.133 183.336 306.117 181.566 306.117ZM181.566 305.191C182.785 305.191 183.535 304.582 183.535 303.691C183.535 302.754 182.703 302.062 181.566 302.062C180.43 302.062 179.586 302.754 179.609 303.691C179.586 304.582 180.348 305.191 181.566 305.191ZM181.566 301.172C182.527 301.172 183.23 300.586 183.23 299.73C183.23 298.887 182.562 298.312 181.566 298.312C180.559 298.312 179.902 298.887 179.902 299.73C179.902 300.586 180.594 301.172 181.566 301.172ZM188.785 306.117C186.898 306.117 185.82 304.535 185.82 301.758C185.82 299.004 186.922 297.398 188.785 297.398C190.648 297.398 191.75 299.004 191.75 301.758C191.75 304.535 190.66 306.117 188.785 306.117ZM188.785 305.18C190.004 305.18 190.719 303.949 190.719 301.758C190.719 299.566 190.004 298.312 188.785 298.312C187.566 298.312 186.84 299.566 186.84 301.758C186.84 303.949 187.555 305.18 188.785 305.18ZM196.109 306.117C194.633 306.094 193.016 305.227 193.016 302.086C193.016 299.086 194.246 297.398 196.238 297.398C197.727 297.398 198.77 298.312 198.992 299.648H197.949C197.75 298.898 197.188 298.336 196.238 298.336C194.844 298.336 194.012 299.531 194.012 301.57H194.117C194.609 300.867 195.383 300.445 196.297 300.445C197.809 300.445 199.062 301.617 199.062 303.258C199.062 304.852 197.891 306.129 196.109 306.117ZM196.109 305.191C197.211 305.191 198.031 304.324 198.043 303.27C198.031 302.227 197.246 301.371 196.133 301.371C195.02 301.371 194.164 302.273 194.152 303.281C194.152 304.277 194.973 305.191 196.109 305.191Z" fill="black"/>
<path d="M170.777 256.586V257.629C170.766 258.906 170.766 260.336 170.391 262.434L169.453 262.328C169.852 260.336 169.852 258.871 169.852 257.629V257.348H163.43V256.586H170.777ZM171.914 263.711V264.473H162.422V263.711H166.148V259.984H167.051V263.711H171.914ZM181.641 255.543V261.684H180.762V258.93H179.344V261.613H178.465V255.742H179.344V258.168H180.762V255.543H181.641ZM181.641 262.164V265.949H180.738V262.914H174.609V262.164H181.641ZM177.363 256.305C177.363 258.789 175.957 260.676 173.309 261.801L172.852 261.109C175.014 260.225 176.238 258.818 176.414 257.066H173.273V256.305H177.363ZM192.012 255.531V263.348H191.133V255.531H192.012ZM189.961 255.742V263.055H189.07V258.941H187.43V258.18H189.07V255.742H189.961ZM192.328 264.953V265.727H185.18V262.387H186.094V264.953H192.328ZM186.246 257.828C186.246 259.047 187.008 260.301 188.332 260.863L187.816 261.59C186.855 261.145 186.17 260.348 185.824 259.398C185.443 260.441 184.717 261.367 183.715 261.848L183.199 261.133C184.535 260.5 185.355 259.059 185.355 257.828V256.27H186.246V257.828ZM202.172 255.531V265.973H201.258V260.23H199.055V259.469H201.258V255.531H202.172ZM198.879 256.492V257.254H194.941V259.422H198.422V260.172H194.941V262.691C196.857 262.691 198.076 262.627 199.512 262.375L199.617 263.137C198.105 263.383 196.828 263.453 194.812 263.453H194.016V256.492H198.879Z" fill="black"/>
<defs>
<clipPath id="clip0_889_6505">
<rect width="118" height="238" fill="white"/>
</clipPath>
</defs>
</svg>
