<svg width="14" height="15" viewBox="0 0 14 15" fill="none" xmlns="http://www.w3.org/2000/svg">
<path d="M1 7.32503C1 6.2252 1 5.67529 1.23525 5.19191C1.47051 4.70853 1.91231 4.35066 2.79593 3.6349L3.65307 2.94059C5.2502 1.64686 6.04877 1 7 1C7.95123 1 8.7498 1.64686 10.3469 2.94059L11.2041 3.6349C12.0877 4.35066 12.5295 4.70853 12.7647 5.19191C13 5.67529 13 6.2252 13 7.32503V10.7599C13 12.2873 13 13.051 12.4979 13.5255C11.9958 14 11.1877 14 9.57143 14H4.42857C2.81233 14 2.00421 14 1.5021 13.5255C1 13.051 1 12.2873 1 10.7599V7.32503Z" stroke="#0095FF" stroke-width="2"/>
</svg>
