<svg width="22" height="20" viewBox="0 0 22 20" fill="none" xmlns="http://www.w3.org/2000/svg">
<path d="M18.3334 10V13.5C18.3334 15.3856 18.3334 16.3284 17.7476 16.9142C17.1618 17.5 16.219 17.5 14.3334 17.5H5.75008C4.59949 17.5 3.66675 16.5673 3.66675 15.4167V15.4167C3.66675 14.2661 4.59949 13.3333 5.75008 13.3333H14.3334C16.219 13.3333 17.1618 13.3333 17.7476 12.7475C18.3334 12.1618 18.3334 11.219 18.3334 9.33333V6.5C18.3334 4.61438 18.3334 3.67157 17.7476 3.08579C17.1618 2.5 16.219 2.5 14.3334 2.5H7.66675C5.78113 2.5 4.83832 2.5 4.25253 3.08579C3.66675 3.67157 3.66675 4.61438 3.66675 6.5V15.4167" stroke="#0095FF" stroke-width="2"/>
<path d="M8.25 8.33268L9.41066 9.38783C9.79208 9.73457 10.3746 9.73458 10.756 9.38783L13.75 6.66602" stroke="#0095FF" stroke-width="2" stroke-linecap="round"/>
</svg>
