<svg width="432" height="238" viewBox="0 0 432 238" fill="none" xmlns="http://www.w3.org/2000/svg">
<g clip-path="url(#clip0_930_6502)">
<path d="M382.677 109.002L368.809 110.398C366.56 108.428 363.397 102.896 361.568 96.3392C360.44 92.3051 359.819 87.8844 360.23 83.6673C360.325 82.6592 360.484 81.6626 360.708 80.6859C362.204 74.155 365.339 75.4491 367.632 78.5567C369.281 80.7963 370.322 82.7309 372.788 85.367C375.746 88.5323 382.26 91.4586 384.05 97.743C384.224 98.3497 384.351 98.9926 384.428 99.6669C384.724 102.219 384.273 105.274 382.677 109.001" fill="#42BDF4"/>
<path d="M249.95 166.393C245.963 184.231 240.377 222.608 277.334 233.962C304.823 242.407 274.643 196.97 279.832 181.108" fill="#2887CE"/>
<path d="M191.913 199.505C194.414 204.14 199.988 206.678 234.299 210.338C248.941 211.9 256.261 212.705 261.221 212.768C275.915 212.956 292.013 211.217 311.582 206.483C390.655 187.355 389.107 90.5756 378.794 92.464C372.051 93.698 372.934 109.012 358.205 117.061C343.624 125.029 328.683 111.291 306.882 101.736C292.384 95.382 240.423 72.779 206.776 93.4186C187.639 105.157 172.946 131.796 175.236 155.736C175.561 159.137 176.178 161.958 176.714 163.979C176.549 165.371 176.546 167.237 177.207 169.255C179.342 175.771 186.462 177.917 187.335 178.166C187.335 178.166 187.4 178.192 193.959 180.675C188.845 191.393 190.517 196.919 191.913 199.505V199.505Z" fill="#42BDF4"/>
<path d="M383.076 121.389C379.444 151.009 361.722 194.355 311.584 206.483C279.539 214.236 256.801 213.956 234.299 210.338C212.512 206.839 197.07 205.988 191.915 199.507C185.245 191.123 193.96 180.674 193.96 180.674C193.96 180.674 193.26 180.49 191.982 180.042C204.818 183.62 224.087 185.173 244.107 174.956C244.107 174.956 259.433 183.187 269.217 185.867C297.89 193.72 324.16 190.494 340.612 183.184C366.473 171.695 376.687 146.976 383.077 121.389" fill="white"/>
<path d="M431.57 89.1403C431.464 89.9456 431.211 90.8647 430.788 91.8967C429.863 94.1875 428.106 97.0445 425.258 100.474C416.368 111.175 393.985 117.419 376.57 115.07L375.672 105.875C375.672 105.875 375.842 105.132 376.329 103.931C376.332 103.924 376.336 103.913 376.34 103.906C378.06 99.6839 383.647 89.8945 399.235 86.81C410.357 84.6116 414.489 89.0719 426.566 85.2051C429.631 84.225 432.053 85.5175 431.568 89.1403" fill="#42BDF4"/>
<path d="M279.777 185.185C281.496 206.243 301.409 227.059 342.892 219.269C358.529 216.332 342.74 207.505 331.949 201.39C320.454 194.877 322.914 186.874 309.286 180.957" fill="#42BDF4"/>
<path d="M199.237 181.581C199.237 181.581 193.202 187.272 196.644 192.11C199.34 195.901 221.285 203.194 243.421 175.52C243.421 175.52 230.192 185.001 199.237 181.581" fill="#026BAF"/>
<path d="M251.538 152.439C254.577 152.439 257.041 149.745 257.041 146.422C257.041 143.098 254.577 140.404 251.538 140.404C248.499 140.404 246.035 143.098 246.035 146.422C246.035 149.745 248.499 152.439 251.538 152.439Z" fill="black"/>
</g>
<g clip-path="url(#clip1_930_6502)">
<path d="M97.4692 217.742C90.7787 217.742 84.2082 214.465 80.2609 208.435C74.0214 198.904 76.6488 186.046 86.1197 179.763C95.5907 173.484 108.372 176.132 114.611 185.659C120.851 195.19 118.223 208.052 108.752 214.331C105.273 216.638 101.35 217.738 97.4692 217.738V217.742ZM97.4154 182.478C94.6804 182.478 91.9206 183.256 89.4712 184.876C82.8055 189.298 80.9519 198.35 85.346 205.063C89.7401 211.775 98.7394 213.636 105.405 209.218C112.071 204.796 113.924 195.74 109.53 189.032C106.75 184.784 102.124 182.482 97.4154 182.482V182.478Z" fill="#C7E8FA"/>
<g opacity="0.6">
<path d="M108.193 192.033C108.786 189.596 106.006 186.816 101.982 185.824C97.9578 184.832 94.2148 186.002 93.6213 188.439C93.0279 190.876 95.8089 193.656 99.8327 194.648C103.857 195.641 107.6 194.47 108.193 192.033Z" fill="white"/>
</g>
<g opacity="0.6">
<path d="M88.3173 190.285C88.942 191.243 90.2205 191.505 91.1722 190.877C92.1238 190.248 92.3845 188.961 91.7597 188.003C91.135 187.046 89.8564 186.783 88.9048 187.412C87.9531 188.041 87.6925 189.328 88.3173 190.285Z" fill="white"/>
</g>
<path d="M45.5669 199.417C38.715 199.417 31.9956 196.065 27.9531 189.894C21.5647 180.138 24.2583 166.972 33.9526 160.543C43.647 154.118 56.7301 156.828 63.1185 166.58C69.5028 176.336 66.8134 189.502 57.119 195.932C53.5607 198.288 49.5431 199.417 45.5669 199.417ZM45.5131 163.178C42.6871 163.178 39.8322 163.978 37.3041 165.656C30.4109 170.228 28.4993 179.584 33.0382 186.521C37.5772 193.454 46.8743 195.382 53.7717 190.814C60.6608 186.242 62.5724 176.886 58.0376 169.949C55.1619 165.56 50.383 163.178 45.5172 163.178H45.5131Z" fill="#C7E8FA"/>
<g opacity="0.6">
<path d="M55.7722 173.158C56.3656 170.721 53.5846 167.941 49.5608 166.949C45.5369 165.957 41.7939 167.127 41.2004 169.564C40.607 172.001 43.388 174.781 47.4118 175.773C51.4357 176.766 55.1788 175.595 55.7722 173.158Z" fill="white"/>
</g>
<g opacity="0.6">
<path d="M35.8973 171.414C36.5221 172.372 37.8006 172.634 38.7523 172.005C39.7039 171.377 39.9646 170.09 39.3398 169.132C38.715 168.175 37.4365 167.912 36.4849 168.541C35.5332 169.17 35.2726 170.456 35.8973 171.414Z" fill="white"/>
</g>
<path d="M35.3518 148.115C30.8625 148.115 26.456 145.92 23.8079 141.873C21.7805 138.775 21.073 135.069 21.8136 131.438C22.5542 127.803 24.6603 124.68 27.7386 122.64C34.0898 118.426 42.6671 120.204 46.8502 126.596C51.0333 132.991 49.2707 141.619 42.9195 145.829C40.5859 147.378 37.9544 148.115 35.3518 148.115ZM35.3146 126.475C33.8581 126.475 32.3893 126.887 31.086 127.753C29.3647 128.894 28.1896 130.639 27.7759 132.671C27.3621 134.703 27.7552 136.772 28.8889 138.5C31.2266 142.073 36.018 143.068 39.568 140.711C43.1181 138.359 44.1028 133.537 41.7651 129.964C40.2838 127.703 37.822 126.475 35.3146 126.475Z" fill="#C7E8FA"/>
<g opacity="0.6">
<path d="M33.1999 132.642C34.2301 134.212 36.3279 134.649 37.8878 133.612C39.4476 132.575 39.8821 130.464 38.8518 128.894C37.8216 127.325 35.7238 126.887 34.1639 127.924C32.6041 128.961 32.1696 131.072 33.1999 132.642Z" fill="white"/>
</g>
<path d="M81.3939 149.909C80.6243 149.909 79.8506 149.829 79.081 149.667C76.1061 149.051 73.5449 147.306 71.8733 144.754C68.4226 139.482 69.8749 132.366 75.1131 128.893C77.6494 127.211 80.6864 126.62 83.6613 127.24C86.6363 127.857 89.1974 129.601 90.869 132.154C94.3198 137.425 92.8675 144.541 87.6293 148.014C85.7508 149.259 83.5951 149.909 81.3939 149.909ZM81.3567 133.132C80.3347 133.132 79.3334 133.432 78.4604 134.011C77.2812 134.794 76.4743 135.993 76.1888 137.384C75.9034 138.774 76.1764 140.194 76.9543 141.381C77.7322 142.568 78.9197 143.38 80.3057 143.667C81.6877 143.95 83.0986 143.679 84.2778 142.897C85.4571 142.114 86.2639 140.915 86.5494 139.524C86.8349 138.133 86.5618 136.713 85.7839 135.526C85.0061 134.34 83.8186 133.528 82.4325 133.24C82.0766 133.166 81.7125 133.132 81.3567 133.132Z" fill="#C7E8FA"/>
<g opacity="0.6">
<path d="M80.1446 137.68C80.8108 138.696 82.1679 138.979 83.1775 138.308C84.187 137.638 84.4684 136.272 83.8023 135.256C83.1361 134.24 81.779 133.957 80.7694 134.627C79.7598 135.298 79.4785 136.664 80.1446 137.68Z" fill="white"/>
</g>
<path d="M57.3429 22.2476C52.3695 22.2476 47.843 18.8416 46.6059 13.7699C45.9025 10.8844 46.3576 7.89885 47.8885 5.35887C49.4194 2.81889 51.8399 1.02842 54.7073 0.320557C60.6282 -1.13264 66.6235 2.52326 68.0717 8.47763C68.7751 11.3632 68.3199 14.3529 66.789 16.8929C65.2581 19.4328 62.8376 21.2233 59.9703 21.9312C59.089 22.1477 58.2077 22.2518 57.3388 22.2518L57.3429 22.2476ZM57.3388 4.08472C56.7885 4.08472 56.2299 4.15134 55.6755 4.28875C53.8632 4.73429 52.3281 5.86687 51.3599 7.47413C50.3917 9.08139 50.1021 10.9718 50.549 12.7998C51.4675 16.5681 55.2617 18.8874 59.0062 17.9588C60.8185 17.5133 62.3535 16.3807 63.3217 14.7734C64.2899 13.1662 64.5796 11.2758 64.1327 9.44782C63.3507 6.23745 60.4833 4.08472 57.3388 4.08472Z" fill="#C7E8FA"/>
<g opacity="0.6">
<path d="M55.5803 10.5213C55.9485 12.0328 57.467 12.9572 58.9689 12.5866C60.4709 12.216 61.3894 10.6878 61.0212 9.17633C60.6529 7.66484 59.1344 6.74046 57.6325 7.11104C56.1305 7.48163 55.212 9.00978 55.5803 10.5213Z" fill="white"/>
</g>
<path d="M68.2414 66.0397C66.4333 66.0397 64.6541 65.5442 63.0653 64.574C60.7772 63.1791 59.1635 60.9681 58.5263 58.349C57.8892 55.7341 58.3029 53.0234 59.689 50.7207C61.0751 48.4181 63.2722 46.7984 65.8706 46.1529C71.2329 44.8455 76.6738 48.1475 77.9896 53.548C78.6268 56.163 78.213 58.8736 76.8269 61.1763C75.4408 63.4789 73.2438 65.0987 70.6412 65.7441C69.8427 65.9398 69.0358 66.0356 68.2373 66.0356L68.2414 66.0397ZM62.4695 57.3788C62.8501 58.9361 63.8059 60.2519 65.1713 61.0805C66.5326 61.9133 68.138 62.159 69.6813 61.7759C71.2288 61.3928 72.5362 60.4268 73.3596 59.0569C74.1871 57.6869 74.4313 56.0755 74.0506 54.5182C73.2686 51.3078 70.033 49.3258 66.8388 50.1211C65.2913 50.5001 63.988 51.4661 63.1605 52.836C62.3329 54.2059 62.0888 55.8173 62.4695 57.3746V57.3788Z" fill="#C7E8FA"/>
<g opacity="0.6">
<path d="M66.0693 53.5679C66.2761 54.4132 67.1244 54.9295 67.9601 54.7213C68.8001 54.5131 69.3131 53.6595 69.1063 52.8184C68.8994 51.9773 68.0512 51.4568 67.2154 51.665C66.3754 51.8732 65.8624 52.7268 66.0693 53.5679Z" fill="white"/>
</g>
<path d="M68.353 238.001C65.2374 238.001 62.1798 236.477 60.3427 233.67C57.4381 229.232 58.6628 223.244 63.0735 220.321C65.2085 218.905 67.7655 218.414 70.2688 218.93C72.772 219.451 74.9277 220.921 76.3345 223.065C79.2391 227.504 78.0143 233.491 73.6078 236.415C71.99 237.489 70.1612 238.001 68.353 238.001ZM63.7314 231.422C65.4071 233.974 68.833 234.686 71.3735 233C73.914 231.318 74.6174 227.866 72.9458 225.309C72.1348 224.073 70.8935 223.223 69.4536 222.923C68.0096 222.624 66.5366 222.911 65.3078 223.727C62.7673 225.409 62.0639 228.861 63.7355 231.418L63.7314 231.422Z" fill="#C7E8FA"/>
<g opacity="0.6">
<path d="M65.6144 227.666C66.4005 228.869 68.0059 229.198 69.2017 228.407C70.3975 227.616 70.7243 226 69.9382 224.797C69.152 223.593 67.5467 223.264 66.3509 224.056C65.1551 224.847 64.8283 226.462 65.6144 227.666Z" fill="white"/>
</g>
<path d="M8.77622 179.697C8.18454 179.697 7.58873 179.634 6.99292 179.513C4.70069 179.039 2.72706 177.694 1.44027 175.728C-1.21607 171.669 -0.0989165 166.189 3.93524 163.512C7.97353 160.834 13.4145 161.963 16.0749 166.027C17.3617 167.992 17.8127 170.349 17.341 172.656C16.8694 174.962 15.5329 176.949 13.58 178.243C12.1318 179.201 10.4726 179.701 8.77622 179.701V179.697ZM8.75553 168.179C8.25075 168.179 7.74182 168.325 7.29082 168.621C6.05782 169.437 5.71854 171.111 6.52951 172.347C6.92258 172.951 7.52253 173.359 8.22178 173.505C8.92517 173.655 9.63684 173.513 10.2327 173.118C10.8285 172.722 11.2381 172.114 11.3829 171.411C11.5277 170.707 11.3912 169.986 10.9981 169.387C10.485 168.604 9.62856 168.175 8.75967 168.175L8.75553 168.179Z" fill="#C7E8FA"/>
<g opacity="0.6">
<path d="M6.51688 170.439C7.16648 171.43 8.49051 171.705 9.47112 171.051C10.4559 170.398 10.7289 169.065 10.0793 168.078C9.42975 167.087 8.10572 166.813 7.12511 167.466C6.14036 168.12 5.86728 169.453 6.51688 170.439Z" fill="white"/>
</g>
</g>
<defs>
<clipPath id="clip0_930_6502">
<rect width="256.632" height="159" fill="white" transform="translate(175 76)"/>
</clipPath>
<clipPath id="clip1_930_6502">
<rect width="118" height="238" fill="white"/>
</clipPath>
</defs>
</svg>
