<svg width="21" height="21" viewBox="0 0 21 21" fill="none" xmlns="http://www.w3.org/2000/svg">
<g clip-path="url(#clip0_334_6531)">
<path d="M17.5 10.5V19.25H3.5V10.5M10.5 19.25V6.125M10.5 6.125H6.5625C5.98234 6.125 5.42594 5.89453 5.0157 5.4843C4.60547 5.07406 4.375 4.51766 4.375 3.9375C4.375 3.35734 4.60547 2.80094 5.0157 2.3907C5.42594 1.98047 5.98234 1.75 6.5625 1.75C9.625 1.75 10.5 6.125 10.5 6.125ZM10.5 6.125H14.4375C15.0177 6.125 15.5741 5.89453 15.9843 5.4843C16.3945 5.07406 16.625 4.51766 16.625 3.9375C16.625 3.35734 16.3945 2.80094 15.9843 2.3907C15.5741 1.98047 15.0177 1.75 14.4375 1.75C11.375 1.75 10.5 6.125 10.5 6.125ZM1.75 6.125H19.25V10.5H1.75V6.125Z" stroke="#00AEFF" stroke-width="2" stroke-linecap="round" stroke-linejoin="round"/>
</g>
<defs>
<clipPath id="clip0_334_6531">
<rect width="21" height="21" fill="white"/>
</clipPath>
</defs>
</svg>
