<svg width="17" height="18" viewBox="0 0 17 18" fill="none" xmlns="http://www.w3.org/2000/svg">
<g clip-path="url(#clip0_334_6541)">
<path d="M7.08335 9.75095C7.38755 10.1815 7.77565 10.5378 8.22133 10.7957C8.667 11.0535 9.15984 11.2068 9.6664 11.2452C10.173 11.2836 10.6814 11.2062 11.1572 11.0183C11.6331 10.8303 12.0651 10.5363 12.4242 10.156L14.5492 7.90595C15.1943 7.19869 15.5513 6.25143 15.5432 5.2682C15.5352 4.28496 15.1627 3.34441 14.506 2.64913C13.8494 1.95385 12.9611 1.55947 12.0325 1.55092C11.1039 1.54238 10.2092 1.92036 9.54127 2.60345L8.32294 3.88595M9.91669 8.25095C9.61249 7.82035 9.22439 7.46406 8.77871 7.20625C8.33303 6.94843 7.8402 6.79511 7.33364 6.7567C6.82708 6.71829 6.31865 6.79568 5.84282 6.98361C5.36699 7.17155 4.9349 7.46565 4.57585 7.84595L2.45085 10.096C1.80571 10.8032 1.44873 11.7505 1.4568 12.7337C1.46487 13.7169 1.83734 14.6575 2.494 15.3528C3.15065 16.0481 4.03894 16.4424 4.96756 16.451C5.89617 16.4595 6.7908 16.0815 7.45877 15.3985L8.67002 14.116" stroke="#00AEFF" stroke-width="2" stroke-linecap="round" stroke-linejoin="round"/>
</g>
<defs>
<clipPath id="clip0_334_6541">
<rect width="17" height="18" fill="white"/>
</clipPath>
</defs>
</svg>
