<svg width="22" height="22" viewBox="0 0 22 22" fill="none" xmlns="http://www.w3.org/2000/svg">
<path d="M7.87417 12.3848L14.135 16.0332M14.1258 5.96815L7.87417 9.61648M19.25 4.58398C19.25 6.10277 18.0188 7.33398 16.5 7.33398C14.9812 7.33398 13.75 6.10277 13.75 4.58398C13.75 3.0652 14.9812 1.83398 16.5 1.83398C18.0188 1.83398 19.25 3.0652 19.25 4.58398ZM8.25 11.0007C8.25 12.5194 7.01878 13.7507 5.5 13.7507C3.98122 13.7507 2.75 12.5194 2.75 11.0007C2.75 9.48187 3.98122 8.25065 5.5 8.25065C7.01878 8.25065 8.25 9.48187 8.25 11.0007ZM19.25 17.4173C19.25 18.9361 18.0188 20.1673 16.5 20.1673C14.9812 20.1673 13.75 18.9361 13.75 17.4173C13.75 15.8985 14.9812 14.6673 16.5 14.6673C18.0188 14.6673 19.25 15.8985 19.25 17.4173Z" stroke="#00AEFF" stroke-width="2" stroke-linecap="round" stroke-linejoin="round"/>
</svg>
