<svg width="1440" height="244" viewBox="0 0 1440 244" fill="none" xmlns="http://www.w3.org/2000/svg">
<path d="M1551.34 168.183C1502.56 151.996 1468.53 116.122 1408.44 123.135C1368.82 127.759 1346.29 149.131 1319.24 165.076C1277.84 189.464 1214.19 204.011 1153.3 203.004C1092.4 201.998 1035.81 185.457 1005.75 159.883C982.92 140.46 975.372 117.09 958.727 95.9535C942.081 74.8172 911.491 54.3707 865.981 51.3105C806.804 47.3289 751.536 74.2017 721.901 101.918C692.266 129.633 675.509 161.068 633.83 184.825C556.721 228.769 423.378 230.309 319.273 213.853C215.157 197.397 121.199 167.032 11.8194 159.407C-102.219 151.454 -225.913 171.489 -319.132 210.326L-312.023 350.873C-236.668 338.519 -164.505 319.736 -100.165 295.332C-36.9153 271.343 27.2643 240.434 103.348 239.99C212.531 239.354 271.916 300.55 371.612 319.116C451.944 334.076 545.826 319.236 629.397 301.658C712.968 284.079 799.292 263.22 886.505 266.218C1017.45 270.722 1112.84 327.569 1241.51 337.967C1330.64 345.173 1424.52 329.094 1509.7 308.499C1594.86 287.904 1676.78 262.412 1766.25 248.591C1776.54 247 1786.99 245.596 1797.53 244.382L1793.05 155.659C1713.29 173.389 1618.91 190.62 1551.34 168.19L1551.34 168.183Z" fill="#C7E8FA"/>
</svg>
