<svg width="40" height="40" viewBox="0 0 40 40" fill="none" xmlns="http://www.w3.org/2000/svg">
<path d="M15 11.666L21.6667 11.666" stroke="#0095FF" stroke-width="2" stroke-linecap="round"/>
<path d="M15 25L20 25" stroke="#0095FF" stroke-width="2" stroke-linecap="round"/>
<path d="M15 18.334L25 18.334" stroke="#0095FF" stroke-width="2" stroke-linecap="round"/>
<path d="M31.6668 18.3333V11C31.6668 8.17157 31.6668 6.75736 30.7881 5.87868C29.9095 5 28.4953 5 25.6668 5H14.3335C11.5051 5 10.0909 5 9.21218 5.87868C8.3335 6.75736 8.3335 8.17157 8.3335 11V29C8.3335 31.8284 8.3335 33.2426 9.21218 34.1213C10.0909 35 11.5051 35 14.3335 35H20.0002" stroke="#0095FF" stroke-width="2"/>
<circle cx="29.1667" cy="29.1667" r="4.16667" stroke="#0095FF" stroke-width="2"/>
<path d="M35 35L32.5 32.5" stroke="#0095FF" stroke-width="2" stroke-linecap="round"/>
</svg>
