<svg width="67" height="71" viewBox="0 0 67 71" fill="none" xmlns="http://www.w3.org/2000/svg">
<path d="M65.1916 30.1621H1.8125V71.0047H65.1916V30.1621Z" fill="#375DA8"/>
<path d="M40.008 30.1621H26.9883V71.0047H40.008V30.1621Z" fill="#EBA6A6"/>
<g style="mix-blend-mode:multiply">
<path d="M65.1916 30.1621H1.8125V35.4082H65.1916V30.1621Z" fill="#94BAD0"/>
</g>
<path d="M67 22.2305H0V31.7468H67V22.2305Z" fill="#61B9D9"/>
<path d="M40.3833 22.2305H26.6162V31.7468H40.3833V22.2305Z" fill="#EBA6A6"/>
<path d="M36.4417 19.5176C36.4417 19.5176 48.4855 16.7364 51.5719 11.9725C55.7737 5.48424 51.2544 1.76953 51.2544 1.76953L46.0496 3.91041C46.0496 3.91041 48.6171 6.46789 46.2665 10.0437C42.0143 16.5127 34.5596 18.777 34.5596 18.777L36.4455 19.5176H36.4417Z" fill="#EBA6A6"/>
<path d="M34.5557 18.7778C34.5557 18.7778 37.8706 4.99522 42.5875 1.81669C49.0082 -2.51135 52.4549 1.98642 53.1403 3.97686C54.6506 8.34734 51.2621 12.4092 51.2621 12.4092C51.2621 12.4092 51.8159 10.5075 51.4131 9.1574C50.6541 6.59606 48.2531 4.02701 44.7329 6.16403C38.1068 10.1873 36.4416 19.5223 36.4416 19.5223L34.5557 18.7817V18.7778Z" fill="#EBA6A6"/>
<path d="M34.1491 19.5176C34.1491 19.5176 22.1052 16.7364 19.0188 11.9725C14.8131 5.48424 19.3363 1.76953 19.3363 1.76953L24.5411 3.91041C24.5411 3.91041 21.9736 6.46789 24.3242 10.0437C28.5764 16.5127 36.0311 18.777 36.0311 18.777L34.1452 19.5176H34.1491Z" fill="#EBA6A6"/>
<path d="M36.0349 18.7778C36.0349 18.7778 32.72 4.99522 28.0031 1.81669C21.5824 -2.51135 18.1357 1.98642 17.4503 3.97686C15.94 8.34734 19.3285 12.4092 19.3285 12.4092C19.3285 12.4092 18.7747 10.5075 19.1775 9.1574C19.9365 6.59606 22.3375 4.02701 25.8577 6.16403C32.4838 10.1873 34.149 19.5223 34.149 19.5223L36.0349 18.7817V18.7778Z" fill="#EBA6A6"/>
<path d="M34.9161 22.2456C34.9161 22.2456 47.0994 24.3248 51.8007 21.1231C58.1982 16.7603 55.4719 11.5914 55.4719 11.5914L49.8412 11.5566C49.8412 11.5566 51.2121 14.9049 47.657 17.2965C41.2207 21.6207 33.4678 20.8338 33.4678 20.8338L34.92 22.2456H34.9161Z" fill="#EBA6A6"/>
<path d="M33.4677 20.8334C33.4677 20.8334 41.879 9.40377 47.4633 8.29283C55.0653 6.77685 56.4943 12.2544 56.3549 14.3529C56.0489 18.9664 51.3437 21.4043 51.3437 21.4043C51.3437 21.4043 52.5907 19.8651 52.7456 18.4649C53.0399 15.811 51.8278 12.5129 47.7499 13.1301C40.0744 14.2873 34.9161 22.249 34.9161 22.249L33.4639 20.8372L33.4677 20.8334Z" fill="#EBA6A6"/>
<path d="M35.1633 22.2456C35.1633 22.2456 22.9801 24.3248 18.2787 21.1231C11.8812 16.7603 14.6075 11.5914 14.6075 11.5914L20.2383 11.5566C20.2383 11.5566 18.8674 14.9049 22.4224 17.2965C28.8587 21.6207 36.6117 20.8338 36.6117 20.8338L35.1594 22.2456H35.1633Z" fill="#EBA6A6"/>
<path d="M36.6158 20.8334C36.6158 20.8334 28.2045 9.40377 22.6202 8.29283C15.0182 6.77685 13.5892 12.2544 13.7287 14.3529C14.0346 18.9664 18.7398 21.4043 18.7398 21.4043C18.7398 21.4043 17.4928 19.8651 17.3379 18.4649C17.0436 15.811 18.2596 12.5129 22.3336 13.1301C30.0091 14.2873 35.1674 22.249 35.1674 22.249L36.6196 20.8372L36.6158 20.8334Z" fill="#EBA6A6"/>
<path d="M37.9787 20.6407C37.9787 21.7478 36.6736 22.6427 35.0665 22.6427C33.4594 22.6427 32.1543 21.7478 32.1543 20.6407C32.1543 19.5336 33.4594 18.6387 35.0665 18.6387C36.6736 18.6387 37.9787 19.5336 37.9787 20.6407Z" fill="#CA2E1A"/>
</svg>
