<svg width="19" height="19" viewBox="0 0 19 19" fill="none" xmlns="http://www.w3.org/2000/svg">
<path d="M15.833 9.50065V17.4173H3.16634V9.50065M9.49967 17.4173V5.54232M9.49967 5.54232H5.93717C5.41227 5.54232 4.90886 5.3338 4.53769 4.96263C4.16653 4.59147 3.95801 4.08806 3.95801 3.56315C3.95801 3.03824 4.16653 2.53483 4.53769 2.16367C4.90886 1.7925 5.41227 1.58398 5.93717 1.58398C8.70801 1.58398 9.49967 5.54232 9.49967 5.54232ZM9.49967 5.54232H13.0622C13.5871 5.54232 14.0905 5.3338 14.4617 4.96263C14.8328 4.59147 15.0413 4.08806 15.0413 3.56315C15.0413 3.03824 14.8328 2.53483 14.4617 2.16367C14.0905 1.7925 13.5871 1.58398 13.0622 1.58398C10.2913 1.58398 9.49967 5.54232 9.49967 5.54232ZM1.58301 5.54232H17.4163V9.50065H1.58301V5.54232Z" stroke="#00AEFF" stroke-width="2" stroke-linecap="round" stroke-linejoin="round"/>
</svg>
