<svg width="20" height="20" viewBox="0 0 20 20" fill="none" xmlns="http://www.w3.org/2000/svg">
<path fill-rule="evenodd" clip-rule="evenodd" d="M9.16663 3.33268C5.94496 3.33268 3.33329 5.94435 3.33329 9.16601C3.33329 12.3877 5.94496 14.9993 9.16663 14.9993C12.3883 14.9993 15 12.3877 15 9.16601C15 5.94435 12.3883 3.33268 9.16663 3.33268ZM1.66663 9.16601C1.66663 5.02388 5.02449 1.66602 9.16663 1.66602C13.3088 1.66602 16.6666 5.02388 16.6666 9.16601C16.6666 13.3082 13.3088 16.666 9.16663 16.666C5.02449 16.666 1.66663 13.3082 1.66663 9.16601Z" fill="white"/>
<path fill-rule="evenodd" clip-rule="evenodd" d="M13.2857 13.2851C13.6111 12.9597 14.1388 12.9597 14.4642 13.2851L18.0892 16.9101C18.4147 17.2355 18.4147 17.7632 18.0892 18.0886C17.7638 18.414 17.2361 18.414 16.9107 18.0886L13.2857 14.4636C12.9603 14.1382 12.9603 13.6105 13.2857 13.2851Z" fill="white"/>
</svg>
